<?xml version="1.0" encoding="UTF-8"?>
<svg width="443px" height="373px" viewBox="0 0 443 373" version="1.1" xmlns="http://www.w3.org/2000/svg" xmlns:xlink="http://www.w3.org/1999/xlink">
    <!-- Generator: Sketch 52.5 (67469) - http://www.bohemiancoding.com/sketch -->
    <title>undraw_work_time_lhoj (1)</title>
    <desc>Created with Sketch.</desc>
    <g id="1001" stroke="none" stroke-width="1" fill="none" fill-rule="evenodd">
        <g id="Desktop-HD-1440" transform="translate(-778.000000, -2617.000000)">
            <g id="undraw_work_time_lhoj-(1)" transform="translate(778.000000, 2617.000000)">
                <ellipse id="Oval" fill="#FFFFFF" opacity="0.1" cx="41.5" cy="319" rx="18.5" ry="3"></ellipse>
                <ellipse id="Oval" fill="#FFFFFF" opacity="0.1" cx="312.5" cy="322" rx="18.5" ry="3"></ellipse>
                <ellipse id="Oval" fill="#FFFFFF" opacity="0.1" cx="266.5" cy="349" rx="18.5" ry="3"></ellipse>
                <ellipse id="Oval" fill="#FFFFFF" opacity="0.1" cx="102.5" cy="297" rx="18.5" ry="3"></ellipse>
                <ellipse id="Oval" fill="#FFFFFF" opacity="0.1" cx="107.5" cy="350" rx="107.5" ry="23"></ellipse>
                <path d="M427.714069,257.586977 C424.800298,264.582535 420.977395,271.28831 415.627148,276.431969 C409.108665,282.698541 401.012837,286.117082 392.344256,287.751643 C389.788904,288.22609 387.209046,288.558647 384.616626,288.747774 C377.76631,289.273007 370.75235,288.924361 364.024767,288.195374 C347.54622,286.403365 331.29449,282.939686 315.52253,277.858248 C312.931501,277.02512 310.355625,276.148223 307.7949,275.227556 C303.931086,273.848065 300.102121,272.367452 296.308007,270.785716 C280.852748,264.351614 264.874738,256.147115 248.433071,258.691777 C240.464521,259.927886 232.977812,263.672434 224.99108,264.786289 C219.385808,265.51982 213.689491,265.116293 208.244853,263.599988 C205.608973,262.897649 203.026581,262.009455 200.517224,260.942128 C194.861452,258.49273 189.480073,255.457445 184.461938,251.88639 C172.415927,243.500775 161.606338,233.104787 148.923935,225.842085 C134.941471,217.832284 119.463485,214.024346 103.694575,211.185372 C101.12779,210.723529 98.5519137,210.282816 95.966946,209.863234 C88.6711548,208.663348 81.357181,207.55402 74.1477575,206.240938 C67.2019825,204.964079 60.1334746,203.401964 54.0877412,199.562331 C49.7739058,196.82297 46.1464657,193.028615 42.8190395,189.030507 C36.6809338,181.621951 31.4159963,173.536694 27.1274065,164.933186 C26.9001232,164.480399 26.6773857,164.027612 26.4591938,163.574825 C19.781613,149.927827 15.2904967,135.049248 12.5358242,119.654492 C12.4540022,119.201705 12.3767259,118.748918 12.2994496,118.296131 C9.70842102,103.204743 8.76292285,87.6017046 9.0492997,72.1118635 L9.07657369,70.7535026 C9.25385459,63.1059313 9.73114934,55.4900549 10.440273,47.9828475 C10.9493874,42.7033518 11.631237,37.2246298 14.3768182,32.7873178 C17.1223994,28.3500059 21.595333,25.501976 26.050084,23.1293724 C45.7509929,12.6835778 64.6200452,9.77668563 85.7937494,14.8388436 C89.1939062,15.6493322 92.5804261,16.523211 95.966946,17.4287849 C98.5443376,18.117021 101.121729,18.8278965 103.694575,19.5432999 C121.481759,24.4832054 139.223487,29.7400618 157.610699,31.3157603 C159.386538,31.4697079 161.163893,31.5874325 162.942763,31.6689341 C166.461107,31.8319374 169.979451,31.8681604 173.497796,31.777603 C182.560904,31.5242285 191.592424,30.5979746 200.517224,29.0065469 C203.099161,28.5628157 205.675038,28.0707872 208.244853,27.5304615 C219.336274,25.225776 230.32769,22.1513527 241.141825,18.7509228 C243.351018,18.0566494 245.557181,17.3503018 247.760312,16.6318799 C252.724178,15.0154305 257.688043,13.3672861 262.661,11.7644203 C277.507139,6.96940661 292.426009,2.59095692 307.7949,0.825087855 C309.110113,0.677177455 310.425325,0.545869243 311.740537,0.431163219 C312.999686,0.322494353 314.263381,0.236464835 315.52253,0.173074664 C339.364539,-1.09472876 363.479287,4.63302601 384.616626,16.3556798 C387.24099,17.8076166 389.816866,19.3531294 392.344256,20.9922181 C395.850478,23.2652085 399.24912,25.710258 402.54018,28.3273665 C409.285946,33.6928917 415.599874,39.8009875 420.409187,47.1406638 C425.095766,54.2901696 428.136816,62.318082 429.886897,70.7580305 C429.982356,71.2108175 430.073269,71.6636044 430.155091,72.1163913 C432.723391,85.7407503 431.923354,100.352185 429.041403,114.003711 C428.736844,115.434518 428.414101,116.869852 428.077722,118.300659 C427.973172,118.753446 427.864076,119.206233 427.75498,119.65902 C424.645746,132.567975 420.672835,145.440708 421.709247,158.639447 C421.841071,160.301175 422.050171,161.94932 422.322911,163.579353 C422.400188,164.03214 422.477464,164.484927 422.563831,164.937714 C424.591198,175.704987 429.200501,185.91986 431.964265,196.582993 C437.152132,216.845468 435.662078,238.232538 427.714069,257.586977 Z" id="Path" fill="#FFFFFF" opacity="0.1"></path>
                <path d="M392.285141,72.050477 L430,72.050477 C429.918396,71.5970156 429.827724,71.1435543 429.732519,70.6900929 L392.285141,70.6900929 L392.285141,20.8501538 C389.76447,19.2116467 387.195441,17.6638319 384.578053,16.2067093 L384.578053,70.6900929 L315.667624,70.6900929 L315.667624,0 C314.411822,0.0634845917 313.151486,0.149642252 311.895684,0.258472981 C310.639883,0.367303709 309.270741,0.50334212 307.960536,0.652984372 L307.960536,70.6900929 L209.581831,70.6900929 L209.346085,70.4316199 L262.946612,11.6040764 C257.986874,13.2093297 253.036204,14.8599291 248.085534,16.4787862 L208.675115,59.7344662 L208.675115,27.3936013 C206.109108,27.9317088 203.540079,28.4244702 200.968027,28.8718854 L200.968027,61.2263541 L174.020423,31.647069 C170.511431,31.7317151 167.002439,31.6954382 163.493448,31.5382382 L198.927916,70.4316199 L198.69217,70.6900929 L104.393688,70.6900929 L104.393688,19.3990774 C101.827681,18.6826084 99.2571404,17.9706741 96.6866,17.2814128 L96.6866,70.6900929 L10.0272015,70.6900929 L10,72.050477 L96.6956672,72.050477 L96.6956672,118.303537 L13.2415103,118.303537 C13.3185812,118.756998 13.3956521,119.210459 13.4772565,119.663921 L96.6956672,119.663921 L96.6956672,163.649674 L27.3636148,163.649674 C27.5812267,164.103135 27.8033721,164.556596 28.0300512,165.010058 L96.6956672,165.010058 L96.6956672,210.020633 C99.2707411,210.443864 101.83977,210.885233 104.402755,211.34474 L104.402755,165.010058 L200.968027,165.010058 L200.968027,261.143868 C203.470714,262.212785 206.046241,263.102302 208.675115,263.805686 L208.675115,165.010058 L307.960536,165.010058 L307.960536,275.459644 C310.517476,276.384705 313.086505,277.262908 315.667624,278.094254 L315.667624,165.010058 L384.578053,165.010058 L384.578053,289 C387.163582,288.810591 389.736582,288.477538 392.285141,288.002385 L392.285141,165.010058 L422.424386,165.010058 C422.338248,164.556596 422.261177,164.103135 422.184107,163.649674 L392.262473,163.649674 L392.262473,119.663921 L427.579068,119.663921 C427.687874,119.210459 427.79668,118.756998 427.900952,118.303537 L392.285141,118.303537 L392.285141,72.050477 Z M384.578053,72.050477 L384.578053,118.303537 L315.667624,118.303537 L315.667624,72.050477 L384.578053,72.050477 Z M307.960536,118.303537 L208.675115,118.303537 L208.675115,72.050477 L307.960536,72.050477 L307.960536,118.303537 Z M104.402755,72.050477 L199.607953,72.050477 L200.968027,73.2884265 L200.968027,118.303537 L104.402755,118.303537 L104.402755,72.050477 Z M104.402755,163.649674 L104.402755,119.663921 L200.968027,119.663921 L200.968027,163.649674 L104.402755,163.649674 Z M208.675115,163.649674 L208.675115,119.663921 L307.960536,119.663921 L307.960536,163.649674 L208.675115,163.649674 Z M384.578053,163.649674 L315.667624,163.649674 L315.667624,119.663921 L384.578053,119.663921 L384.578053,163.649674 Z" id="Shape" fill="#FFFFFF" fill-rule="nonzero" opacity="0.1"></path>
                <path d="M352.426496,39.992015 L351.822043,39.992015 C352.254612,39.7358152 352.531892,39.2729752 352.559293,38.7613903 C352.559293,37.7937999 351.400758,37 349.985789,37 L331.943787,37 C330.528817,37 329.365703,37.7937999 329.365703,38.7613903 C329.365703,39.7336778 330.528817,40.5274777 331.943787,40.5274777 L332.548239,40.5274777 C332.116271,40.7843097 331.839211,41.2467811 331.81099,41.7581024 C331.81099,42.5847816 332.653561,43.2846407 333.780041,43.4725223 L328.578083,43.4725223 C327.158535,43.4725223 326,44.2663222 326,45.2339126 C326,46.2015031 327.158535,47 328.578083,47 L346.624664,47 C348.044213,47 349.202748,46.2062001 349.202748,45.2339126 C349.202748,44.4072334 348.360177,43.7120714 347.229117,43.5241898 L352.426496,43.5241898 C353.841465,43.5241898 355,42.7303899 355,41.7581024 C355,40.7858149 353.841465,39.992015 352.426496,39.992015 Z" id="Path" fill="#FFFFFF" opacity="0.1"></path>
                <path d="M157.426496,55.9967121 L156.822043,55.9967121 C157.251651,55.7374045 157.527852,55.2763676 157.559293,54.7660874 C157.559293,53.7937999 156.400758,53 154.98121,53 L136.934628,53 C135.51508,53 134.356545,53.7937999 134.356545,54.7660874 C134.356545,55.7336778 135.51508,56.5274777 136.934628,56.5274777 L137.534502,56.5274777 C137.106067,56.7872954 136.831489,57.2484884 136.801832,57.7581024 C136.801832,58.5894786 137.644402,59.2846407 138.770883,59.4725223 L133.578083,59.4725223 C132.158535,59.4725223 131,60.2663222 131,61.2386097 C131,62.2108971 132.158535,63 133.578083,63 L151.624664,63 C153.044213,63 154.202748,62.2062001 154.202748,61.2386097 C154.202748,60.4072334 153.355598,59.7120714 152.229117,59.5241898 L157.426496,59.5241898 C158.841465,59.5241898 160,58.7303899 160,57.7581024 C160,56.7858149 158.841465,55.9967121 157.426496,55.9967121 Z" id="Path" fill="#FFFFFF" opacity="0.1"></path>
                <path d="M378.426496,124.993421 L377.822043,124.993421 C378.251651,124.733992 378.527852,124.272738 378.559293,123.762218 C378.559293,122.794173 377.400758,122 375.98121,122 L357.934628,122 C356.51508,122 355.356545,122.794173 355.356545,123.762218 C355.356545,124.730263 356.51508,125.524436 357.934628,125.524436 L358.534502,125.524436 C358.105479,125.783764 357.83069,126.245529 357.801832,126.755639 C357.801832,127.582707 358.644402,128.282895 359.770883,128.470865 L354.573504,128.470865 C353.158535,128.470865 352,129.265038 352,130.233083 C352,131.201128 353.158535,132 354.573504,132 L372.624664,132 C374.039634,132 375.202748,131.205827 375.202748,130.233083 C375.202748,129.406015 374.355598,128.710526 373.229117,128.522556 L378.426496,128.522556 C379.841465,128.522556 381,127.728383 381,126.755639 C381,125.782895 379.841465,124.993421 378.426496,124.993421 Z" id="Path" fill="#FFFFFF" opacity="0.1"></path>
                <polygon id="Path" fill="#EAECF0" points="103.529354 273 312 296.369941 312 303 103 278.835715"></polygon>
                <polygon id="Path" fill="#EAECF0" points="103 297 99 297 99 199 101.878719 199.862263 101.910755 202.801179"></polygon>
                <polygon id="Path" fill="#D3DAE1" points="104 295.422178 102.166667 297 101.033333 202.934749 101 200 103.166667 200 103.195238 203.110564"></polygon>
                <polygon id="Path" fill="#D3DAE1" points="42 292.24565 100 272 100 273.913836 42 294"></polygon>
                <polygon id="Path" fill="#EAECF0" points="43.0369325 299 42 294.511619 100 275 100 278.868683"></polygon>
                <polygon id="Path" fill="#EAECF0" points="312 193 312 323 309.15 323 309.004286 202.402886 309 198.54657"></polygon>
                <polygon id="Path" fill="#D3DAE1" points="315 192 315 321.886673 312 323 312 192.636187"></polygon>
                <polygon id="Path" fill="#D3DAE1" points="266 319.147153 308.964604 295 312 296.773392 266 322"></polygon>
                <polygon id="Path" fill="#EAECF0" points="267.344053 328 266 322.712678 312 298 312 303.12737"></polygon>
                <polygon id="Path" fill="#EAECF0" points="261 213.587379 261.142857 351 265 351 264.428571 212"></polygon>
                <polygon id="Path" fill="#D3DAE1" points="268 210 268 349.883051 265.705882 351 265 211.276513 265.282353 211.15798"></polygon>
                <polygon id="Path" fill="#EAECF0" points="42 319 38.2903226 319 37.0184332 196.117414 37 194 40.5483871 194 40.5760369 196.416664"></polygon>
                <polygon id="Path" fill="#D3DAE1" points="44 318.047844 41.4416476 319 40.02746 196.416664 40 194 42.7231121 194 42.7459954 196.652436"></polygon>
                <polygon id="Path" fill="#000000" opacity="0.1" points="265 211.116484 268 210 268 215.230769 265.077922 216"></polygon>
                <polygon id="Path" fill="#000000" opacity="0.1" points="314 192 314 200.21219 311.94365 200.952596 309.004205 202 309 198.158014 311.94365 192.632054"></polygon>
                <polygon id="Path" fill="#D48A9B" points="315 176 315 198.644001 265.318616 215 265 190.782874"></polygon>
                <polygon id="Path" fill="#EFC6CD" points="36 174.425318 101.220484 162 315 176.019475 265.055977 191"></polygon>
                <polygon id="Path" fill="#000000" opacity="0.1" points="42.9781022 194 43 197 40.3985401 196.733333 37.0175182 196.394872 37 194"></polygon>
                <polygon id="Path" fill="#000000" opacity="0.1" points="104 203 101.917431 202.822928 99 202.577753 99 199 101.885321 199.867196 103.972477 199.867196"></polygon>
                <polygon id="Path" fill="#D48A9B" points="36 174 36 195.297109 265 215 264.68226 190.528082"></polygon>
                <polygon id="Path" fill="#D48A9B" points="217 199 187 199 187 189 217 190.940611"></polygon>
                <polygon id="Path" fill="#000000" opacity="0.1" points="217 199 187 199 187 189 217 190.940611"></polygon>
                <polygon id="Path" fill="#000000" opacity="0.1" points="147 187 147 204.226938 262 213 262 194.65591 217.145681 192.10242 212.690255 196.092248 194.400277 194.815503 187.880806 190.02771"></polygon>
                <polygon id="Path" fill="#FFFFFF" points="147 186 147 203.228476 262 212 262 193.659127 217.145681 191.106085 212.694801 195.095213 194.400277 193.818692 187.880806 189.031738"></polygon>
                <polygon id="Path" fill="#D48A9B" points="76.7636971 182 104 183.809565 103.681287 192 85.8971012 192 74 187.575183"></polygon>
                <polygon id="Path" fill="#000000" opacity="0.1" points="76.7636971 182 104 183.809565 103.681287 192 85.8971012 192 74 187.575183"></polygon>
                <polygon id="Path" fill="#000000" opacity="0.1" points="40 179 40 193.974487 144 202 144 186.098983 103.888109 183.787071 99.6104745 186.871092 83.437933 185.948974 76.7813167 181.934011"></polygon>
                <polygon id="Path" fill="#FFFFFF" points="39 178 39 192.974487 143 201 143 185.103395 102.888109 182.787071 98.6104745 185.875504 82.437933 184.948974 75.7813167 180.934011"></polygon>
                <polygon id="Path" fill="#000000" opacity="0.1" points="43 293.236014 44 293 43.4968153 297.877622 43 298"></polygon>
                <polygon id="Path" fill="#000000" opacity="0.1" points="262.606264 178 277 178.934145 253.147651 186 241 185.127836"></polygon>
                <polygon id="Path" fill="#FFFFFF" points="262.606264 178 277 178.934662 253.147651 186 241 185.131783"></polygon>
                <path d="M261,179.08065 C261.577798,178.800424 262.191993,179.329739 262.819836,179.464663 C263.170155,179.542504 263.534122,179.464663 263.88444,179.542504 C264.603276,179.65148 265.317561,180.201554 266,179.921328" id="Path" fill="#D3DAE1"></path>
                <path d="M260,179.083454 C260.573248,178.797293 261.191993,179.32799 261.819836,179.463266 C262.170155,179.54131 262.534122,179.463266 262.88899,179.54131 C263.607825,179.650571 264.317561,180.20208 265,179.921122" id="Path" fill="#D3DAE1"></path>
                <path d="M258,180.08065 C258.577798,179.800424 259.196542,180.329739 259.819836,180.464663 C260.170155,180.542504 260.534122,180.464663 260.88899,180.542504 C261.607825,180.65148 262.317561,181.201554 263,180.921328" id="Path" fill="#D3DAE1"></path>
                <circle id="Oval" fill="#535461" cx="22.5" cy="333.5" r="4.5"></circle>
                <circle id="Oval" fill="#535461" cx="30.5" cy="350.5" r="4.5"></circle>
                <circle id="Oval" fill="#535461" cx="105.5" cy="353.5" r="4.5"></circle>
                <circle id="Oval" fill="#535461" cx="123.5" cy="331.5" r="4.5"></circle>
                <rect id="Rectangle" fill="#535461" x="70" y="258" width="5" height="33"></rect>
                <rect id="Rectangle" fill="#000000" opacity="0.1" x="70" y="286" width="5" height="5"></rect>
                <rect id="Rectangle" fill="#3A3768" x="69" y="287" width="8" height="37"></rect>
                <path d="M122.254501,325.036109 L74,323 L74,331 L130,331 C128.860492,327.555023 125.783546,325.185832 122.254501,325.036109 Z" id="Path" fill="#3A3768"></path>
                <path d="M25.7454986,325.036109 L74,323 L74,331 L18,331 C19.1384242,327.554212 22.2160051,325.184531 25.7454986,325.036109 Z" id="Path" fill="#3A3768"></path>
                <path d="M69.0389845,323.789061 L30.4369117,342.835372 C27.1064521,344.489229 24.9998999,347.8891 25,351.610279 L25,352.190738 L70.0810592,332.51862 L76.4241228,332.042463 L113.911629,356 C114.399187,352.390749 112.843872,348.809083 109.874722,346.703587 L76.4241228,323 L69.0389845,323.789061 Z" id="Path" fill="#3A3768"></path>
                <path d="M75,259 L75,261.951553 C74.1241497,261.983851 73.2312925,262 72.3214286,262 C71.5348639,262 70.7610544,262 70,261.962733 L70,259 L75,259 Z" id="Path" fill="#000000" opacity="0.1"></path>
                <ellipse id="Oval" fill="#3A3768" cx="72.5" cy="255.5" rx="19.5" ry="5.5"></ellipse>
                <path d="M92,255.504338 C91.9621541,256.122914 91.6613028,256.698943 91.1685872,257.096215 C88.7597373,259.36041 81.3129753,261 72.5044941,261 C63.8892602,261 56.5863102,259.421136 54.0021894,257.239353 C53.4226777,256.829133 53.0568441,256.195793 53,255.504338 C53,252.46806 61.7320811,250 72.5044941,250 C83.2769071,250 92,252.463722 92,255.504338 Z" id="Path" fill="#000000" opacity="0.1"></path>
                <path d="M92,255.073098 C91.9621541,255.756668 91.6613028,256.393222 91.1685872,256.832235 C88.6878313,256.170761 86.9710763,255.624326 86.9710763,255.624326 C86.9710763,255.624326 69.7810555,256.65009 54.0021894,257 C53.4226777,256.546677 53.0568441,255.846791 53,255.082684 C53,251.727382 61.7320811,249 72.5044941,249 C83.2769071,249 92,251.713002 92,255.073098 Z" id="Path" fill="#000000" opacity="0.1"></path>
                <path d="M23.1805132,178.840922 C23.1805132,178.840922 29.6740945,196.672566 29.3573344,207.337882 C29.0405744,218.003198 23.9724134,238.059816 23.9724134,238.059816 C23.9724134,238.059816 18.9087775,254.298943 31.8914149,255.732209 C44.8740524,257.165474 87.3018002,254.776698 87.3018002,254.776698 C87.3018002,254.776698 103.139803,259.5497 108.198914,257.479428 C110.167352,256.678619 111.873331,254.9132 113.221824,253.05223 C114.714058,251.002516 115.303284,248.426384 114.851516,245.92712 C114.399747,243.427855 112.946662,241.224968 110.832548,239.834336 C108.468982,238.352952 105.894832,237.242139 103.19863,236.5401 C102.631107,236.38518 102.044371,236.313159 101.45645,236.326248 L46.1365675,237.422809 C46.1365675,237.422809 39.9642714,236.467299 41.0729316,230.261032 C42.1815918,224.054764 44.0776271,204.949106 44.0776271,204.949106 C44.0776271,204.949106 44.3943871,181.707453 33.3123101,175.182682 C22.230233,168.657911 23.1805132,178.840922 23.1805132,178.840922 Z" id="Path" fill="#3A3768"></path>
                <path d="M23.1805126,178.845769 C23.1805126,178.845769 29.674073,196.670029 29.3573139,207.33365 C29.0405549,217.997271 23.9724102,238.05525 23.9724102,238.05525 C23.9724102,238.05525 18.9087907,254.287246 31.8913863,255.720284 C44.8739819,257.153322 87.3015929,254.760376 87.3015929,254.760376 C87.3015929,254.760376 103.139545,259.537169 108.198639,257.489972 C110.167071,256.684741 111.873044,254.919602 113.221533,253.063477 C114.713965,251.013356 115.303286,248.436939 114.851543,245.937344 C114.3998,243.437749 112.94665,241.234419 110.832265,239.843135 C108.466766,238.365724 105.893207,237.255339 103.198372,236.549423 C102.631072,236.393766 102.044005,236.323248 101.456197,236.340154 L46.1364929,237.418344 C46.1364929,237.418344 39.9642167,236.462986 41.0728734,230.253155 C42.18153,224.043325 44.0775591,204.949803 44.0775591,204.949803 C44.0775591,204.949803 44.3943182,181.711844 33.3122768,175.183561 C22.2302355,168.655278 23.1805126,178.845769 23.1805126,178.845769 Z" id="Path" fill="#000000" opacity="0.1"></path>
                <path d="M23.1808934,178.839877 C23.1808934,178.839877 29.6744478,196.668332 29.357689,207.331741 C29.0409303,217.99515 23.9727903,238.048181 23.9727903,238.048181 C23.9727903,238.048181 18.9091754,254.284404 31.8872339,255.717413 C44.8652925,257.150422 87.2973897,254.762073 87.2973897,254.762073 C87.2973897,254.762073 103.135327,259.534222 108.198942,257.491615 C110.167372,256.6864 111.873344,254.921297 113.221831,253.060659 C114.714059,251.011312 115.303283,248.435641 114.851516,245.936823 C114.399749,243.438006 112.94667,241.235513 110.832565,239.845129 C108.470372,238.356062 105.896169,237.237749 103.198679,236.528736 C102.631158,236.373845 102.044424,236.301836 101.456506,236.314922 L46.1368526,237.411288 C46.1368526,237.411288 39.9645821,236.455949 41.0732377,230.250791 C42.1818933,224.045633 44.0779207,204.943392 44.0779207,204.943392 C44.0779207,204.943392 44.3946795,181.705896 33.3126483,175.182292 C22.2306171,168.658688 23.1808934,178.839877 23.1808934,178.839877 Z" id="Path" fill="#3A3768"></path>
                <path d="M136.253592,331.758956 L136.253592,337.504895 C136.253592,337.504895 163.910073,338 170.001546,338 C176.09302,338 184.477377,335.029372 184.976228,332.649236 C185.475079,330.2691 177.987738,328.288682 175.191427,328.193295 C172.395116,328.097907 172.299007,327.003227 168.701788,325.118195 C166.674348,324.05531 163.594286,320.971126 161.296826,318.486518 C159.525676,316.569691 158.221341,315.011702 158.221341,315.011702 C158.221341,315.011702 143.342768,314.716456 139.049904,317.092049 C138.061355,317.641661 137.37944,318.713631 136.912625,320.044508 C135.365729,324.482281 136.253592,331.758956 136.253592,331.758956 Z" id="Path" fill="#434175"></path>
                <path d="M137,320 C140.072072,318.932986 158.045045,318.518787 161,318.455757 C159.256757,316.555842 157.972973,315.011598 157.972973,315.011598 C157.972973,315.011598 143.328829,314.718957 139.103604,317.073591 C138.130631,317.618353 137.459459,318.676363 137,320 Z" id="Path" fill="#000000" opacity="0.1"></path>
                <path d="M57,227.937706 L58.5951871,228.905101 L59.1933822,229.268442 L61.5181861,230.667304 C73.9443309,238.174834 107.837524,258.517378 109.695555,258.372042 C110.180455,258.331166 111.639689,258.113162 113.656332,257.781613 C114.191082,257.69532 114.766618,257.604484 115.369345,257.500024 C123.132287,256.205622 136.034269,253.866616 137.475375,253.221686 C139.451232,252.313334 139.056967,256.291916 138.263905,259.661902 C137.470843,263.031888 136.881712,279.191471 137.769941,281.262514 C138.65817,283.333556 138.263905,286.712626 138.263905,286.712626 L137.08111,304.843333 L137.874172,308.694746 C137.874172,308.694746 135.204953,310.874791 136.29258,312.160109 C137.380208,313.445427 136.392279,319 136.392279,319 C139.564526,317.810059 161.008916,317.414926 161.008916,317.414926 C161.008916,317.414926 160.10256,309.485012 160.909217,307.604723 C161.715874,305.724435 161.108616,294.524454 161.108616,294.524454 C161.108616,294.524454 161.60258,286.004111 160.714351,284.023904 C159.826121,282.043697 161.008916,269.35856 161.008916,269.35856 C161.008916,269.35856 161.801978,261.828321 161.996845,246.468088 C162.191711,231.107855 153.295824,230.617345 153.295824,230.617345 C153.295824,230.617345 152.113029,230.521968 150.30938,230.349381 C146.788186,230.008749 140.914997,229.363819 136.990475,228.532677 C136.186632,228.363543 135.392428,228.151289 134.611289,227.89683 C129.766815,226.24363 113.456933,226.180045 110.787714,227.369986 C108.218194,228.51451 105.648674,227.45628 105.458339,227.369986 L103.382783,224 L83.5517076,225.694077 L81.4534928,225.875747 L61.9305782,227.542573 L60.5710438,227.660659 L57,227.937706 Z" id="Path" fill="#565387"></path>
                <path d="M136.994693,243.512506 C142.832917,246.310314 148.404723,236.396143 151,230.805038 C147.43092,230.466593 141.477861,229.825805 137.499968,229 C134.886317,233.291478 131.395326,240.836537 136.994693,243.512506 Z" id="Path" fill="#000000" opacity="0.1"></path>
                <path d="M120.000719,176.619657 C120.118747,177.2928 120.351825,177.940363 120.689645,178.533703 C122.792212,182.811103 128.88071,191.617515 128.88071,191.617515 C130.691291,192.755795 132.220922,194.2921 133.354256,196.110582 C135.013942,198.954694 135.501559,205.617912 135.501559,205.617912 C135.501559,205.617912 139.210129,220.418076 140.96376,222.480394 C141.858469,223.509306 141.451376,224.120363 140.842974,224.475315 C139.595651,225.17281 138.538583,226.168136 137.765174,227.373344 C135.206305,231.502473 131.121957,239.70232 136.870464,242.51498 C144.676804,246.33858 152,226.299501 152,226.299501 C152,226.299501 150.532677,212.087929 150.143478,209.639208 C149.754279,207.190486 147.410141,197.090071 147.410141,197.090071 C147.410141,197.090071 145.750455,192.776726 144.775222,189.739413 C143.799989,186.7021 140.874289,183.170549 140.874289,183.170549 C140.874289,183.170549 135.599977,172.584883 134.137127,171.016802 C133.457148,170.288925 132.504283,169.372339 131.68115,168.599532 C130.728284,167.700918 129.94094,167 129.94094,167 C129.94094,167 119.902301,174.274276 120.000719,176.619657 Z" id="Path" fill="#EE8E9E"></path>
                <path d="M53,329.874415 L71.0185354,337.888005 C71.0185354,337.888005 94.3700128,338.382335 98.4548193,337.293902 C102.539626,336.205469 101.631891,331.656725 96.2762558,330.763303 C90.9206206,329.86988 89.6452532,327.502538 87.8615544,326.414105 C86.6588058,325.679412 82.3879136,320.931123 79.7418667,317.924326 C78.4664993,316.477617 77.5633032,315.43 77.5633032,315.43 C77.5633032,315.43 74.0957564,306.228204 64.4919224,308.305298 C62.7358858,308.687758 61.1178219,309.542421 59.8125495,310.776948 C54.6339226,315.566054 54.1845939,325.039958 54.1845939,325.039958 L53,329.874415 Z" id="Path" fill="#434175"></path>
                <path d="M60,229.728142 L62.3332463,231.135054 C74.8045162,238.685786 108.820792,259.145393 110.68557,258.999221 C111.172231,258.95811 112.636764,258.738851 114.66073,258.405394 C115.197422,258.318604 115.775048,258.227246 116.379964,258.122185 L116.448188,258.007987 C117.448952,256.25504 118.213667,254.376463 118.722307,252.42145 C120.8054,244.450471 110.485447,238.370601 110.485447,238.370601 L108.302293,236.666776 C105.823503,232.473447 87.9625702,228.508514 87.9625702,228.508514 L85.6611615,226.932589 L84.4285889,226.101232 L84.1056639,225.886541 L81.3130455,224 L67.322664,224.995801 L63.165574,227.677156 L62.7107501,227.960366 L61.1916385,228.960735 L60,229.728142 Z" id="Path" fill="#000000" opacity="0.1"></path>
                <path d="M60,311.706302 C63.804967,324.537865 79.6992481,320.345066 79.6992481,320.345066 L80,318.719468 C78.7195261,317.302622 77.8127136,316.27663 77.8127136,316.27663 C77.8127136,316.27663 74.3312828,307.264778 64.6889952,309.298996 C62.9306245,309.671271 61.3095623,310.503516 60,311.706302 Z" id="Path" fill="#000000" opacity="0.1"></path>
                <path d="M55.2510152,252.247589 C61.1181532,252.247589 76.221361,259.231954 76.221361,259.231954 C79.3030901,261.594644 83.4789242,260.805578 83.4789242,260.805578 C83.4789242,260.805578 76.1347444,268.182221 76.3398891,271.234781 C76.5450338,274.287341 72.1594962,279.301294 72.1594962,279.301294 L58.6336231,305.759817 C59.6319939,324.548615 79.1207393,319.336268 79.1207393,319.336268 L79.9185242,314.908478 C81.1129222,314.317805 82.9045191,308.415589 82.9045191,308.415589 C82.9045191,308.415589 82.9045191,306.057408 84.0943583,305.367538 C85.2841975,304.677669 87.7732864,297.594107 87.7732864,297.594107 C87.7732864,297.594107 93.1435184,288.64384 92.8426395,287.467004 C92.5417607,286.290168 96.7221535,280.288754 96.7221535,280.288754 C96.7221535,280.288754 103.78369,273.403586 103.482811,272.172643 C103.181932,270.941699 109.163039,264.642695 109.163039,264.642695 C111.325174,262.988562 113.121791,260.913882 114.442096,258.546594 C115.44418,256.817378 116.210621,254.964666 116.721481,253.036656 C118.403668,246.697071 112.021388,241.570394 109.473036,239.816412 C108.857602,239.392571 108.465547,239.167123 108.465547,239.167123 L106.277337,237.485285 C105.146762,235.600543 100.829606,233.760891 96.4531861,232.322536 C93.2985166,231.280968 90.1164946,230.442304 88.078724,229.94181 C86.7110928,229.612657 85.890514,229.42779 85.890514,229.42779 L83.583776,227.894746 L82.7723148,227.353672 L82.0292351,226.862197 L79.225591,225 L72.9891925,225.450895 L65.2028119,225.996478 L61.0406541,228.647741 L59.05303,229.910247 L51.2803258,234.870093 C51.2803258,234.870093 51.0751811,236.759344 51.0113583,239.302392 C51.0113583,239.496277 51.0113583,239.69467 51.0113583,239.902082 C50.9065065,245.010723 51.4672354,252.247589 55.2510152,252.247589 Z" id="Path" fill="#565387"></path>
                <path d="M85,140.615735 L87.0868438,148.044771 C87.0868438,148.044771 90.7524303,160.827616 91.147116,161.717647 C91.5418017,162.607678 101.127673,171.626055 101.540506,171.821317 C101.953338,172.016579 107.161374,175 107.161374,175 C107.161374,175 107.574206,158.652489 107.161374,153.902629 C107.12739,152.857755 107.214161,151.812451 107.419961,150.78752 C108.050551,147.059379 109.64744,141.596586 110.972132,137.387102 C112.079067,133.858764 113,131.215916 113,131.215916 C113,131.215916 89.8405703,130.221443 90.6344783,132.501012 C90.933895,133.363798 90.8340894,134.803287 90.5482826,136.247317 C90.0674012,138.626788 89.073882,141.006259 88.4569021,140.82462 C87.8542001,140.686878 87.2377813,140.618321 86.6195723,140.620276 C85.7757615,140.583948 85,140.615735 85,140.615735 Z" id="Path" fill="#EE8E9E"></path>
                <path d="M91,136.686958 C96.9517361,141.94222 105.454837,142.444267 111.921771,137.922239 C113.056196,134.098283 114,131.234007 114,131.234007 C114,131.234007 90.2654134,130.156212 91.0790378,132.626773 C91.395189,133.561846 91.2929048,135.121942 91,136.686958 Z" id="Path" fill="#000000" opacity="0.1"></path>
                <path d="M85.0001743,122.995346 C84.9983528,129.871474 89.1390331,136.071547 95.4912279,138.704189 C101.843423,141.336832 109.15602,139.883525 114.018824,135.022012 C118.881627,130.1605 120.336872,122.848292 117.705911,116.495404 C115.07495,110.142516 108.875971,106.000196 101.999839,106.000195 C97.4854188,105.97852 93.1495668,107.761969 89.9569302,110.953758 C86.7642936,114.145547 84.9796948,118.480923 85.0001743,122.995346 Z" id="Path" fill="#EE8E9E"></path>
                <path d="M85,140.013098 L87.1408337,147.572339 C87.1408337,147.572339 90.9012546,160.579223 91.3061514,161.484854 C91.7110482,162.390484 101.544921,171.566922 101.968434,171.765606 C102.391947,171.96429 107.734723,175 107.734723,175 C107.734723,175 108.158236,158.365974 107.734723,153.532865 C107.699859,152.469678 107.788876,151.406053 108,150.363159 L106.603804,155.949419 L106.706192,167.140423 L107.515985,167.745716 L105.691623,170.467228 L105.691623,168.448042 C105.691623,168.448042 99.1760421,162.201041 98.175435,159.576561 C97.174828,156.952081 93.5214488,152.211384 93.5214488,152.211384 C93.5214488,152.211384 89.3328612,145.28054 89.2583974,144.05609 C89.1792796,143.131978 87.4293808,140.93259 86.6614731,140.017719 C85.7958316,139.980754 85,140.013098 85,140.013098 Z" id="Path" fill="#000000" opacity="0.1"></path>
                <path d="M120.000737,176.172387 C120.121847,176.815132 120.361013,177.433453 120.707656,178 C122.897269,177.794072 130.347462,176.48986 132,168.527301 C131.022248,167.669267 130.214341,167 130.214341,167 C130.214341,167 119.899748,173.932917 120.000737,176.172387 Z" id="Path" fill="#000000" opacity="0.1"></path>
                <path d="M51,240 C52.9993391,238.583106 54.9032551,236.653043 56.0392432,236.121708 C57.7250496,235.326975 60.3014706,232.752044 60.3014706,232.752044 C60.3014706,232.752044 60.9557997,232.297911 61.9600132,231.716621 C63.8003139,230.640327 66.8174983,229.078111 69.1258262,228.887375 C71.1933245,228.714805 78.0728685,228.274296 83.4801718,227.938238 L90.5369299,227.484105 C90.5369299,227.484105 96.9802545,225.213442 99.7566094,226.689373 C101.744678,227.680832 103.839322,228.442635 106,228.960036 C106,228.960036 106,228.742053 106,228.369664 L103.91887,225 L81.9306841,226.875568 L79.1361533,225 L65.1589557,225.990009 L61.0103272,228.660309 L57.4296927,228.964578 L59.0291639,229.93188 L51.281725,234.927339 C51.281725,234.927339 51.0454395,237.143506 51,240 Z" id="Path" fill="#000000" opacity="0.1"></path>
                <path d="M48.2575498,239.931334 C49.2979739,239.618009 50.2731565,239.116381 51.1354306,238.450971 C53.1125662,237.038724 54.9951236,235.113345 56.1165513,234.582049 C57.7874336,233.787376 60.3410461,231.212636 60.3410461,231.212636 C60.3410461,231.212636 65.5518569,227.643419 69.0872816,227.348255 C70.0510789,227.266517 72.0687481,227.125746 74.4917525,226.966812 L82.5128882,226.449139 L86.6743308,226.185762 L90.3088375,225.963253 C90.3088375,225.963253 96.6951207,223.692759 99.4468971,225.16858 C101.417366,226.159966 103.493466,226.921712 105.635016,227.439075 C105.635016,227.439075 105.734098,220.504985 106.535762,217.63054 C107.337425,214.756094 108.400304,209.506712 108.400304,209.506712 C108.400304,209.506712 109.301049,202.277458 110.170268,199.007947 C111.039487,195.738435 114.493845,177.510908 116.263809,176.303005 C118.033773,175.095102 119.011082,177.211202 119.011082,177.211202 C119.011082,177.211202 130.801836,177.011399 131,163.937894 C131,163.937894 125.496447,158.388806 125.104623,157.003804 C124.712799,155.618803 119.506492,150.464781 119.506492,150.464781 C119.506492,150.464781 116.556551,144.915693 113.201276,144.815792 C111.623697,144.723236 110.041065,144.773387 108.472364,144.965644 L105.635016,156.604197 L105.734098,167.602471 L106.52225,168.197341 L104.752286,170.871983 L104.752286,168.923899 C104.752286,168.923899 98.44707,162.779942 97.4832727,160.205201 C96.5194754,157.630461 92.9795469,152.962325 92.9795469,152.962325 C92.9795469,152.962325 88.953216,146.150842 88.8541341,144.94748 C88.7550521,143.744118 86.0032757,140.574509 86.0032757,140.574509 C85.4483236,140.507059 84.8873454,140.507059 84.3323934,140.574509 C84.0846527,140.590756 83.8362553,140.555198 83.6027898,140.470066 C82.0162114,139.960071 80.3274298,139.863217 78.6937287,140.188525 C75.2979195,140.90146 70.1366497,142.200182 68.7134724,143.757741 C66.551684,146.137219 63.4080834,148.416795 59.8681549,158.320691 L78.9279224,165.25478 L77.2975737,168.383521 L62.1290253,197.445847 C62.1290253,197.445847 61.624608,198.272306 60.9445454,199.348521 C60.0438002,200.747145 58.8773352,202.577163 58.0981907,203.580722 C56.7245543,205.36533 57.1163785,211.009779 57.1163785,211.009779 C57.1163785,211.009779 56.8236363,213.684421 55.8418241,214.678897 C54.8600118,215.673374 55.0491683,219.328869 55.0491683,219.328869 L52.4955558,228.937601 C52.4955558,228.937601 50.1356035,231.117275 50.1356035,232.116293 C50.1356035,233.11531 48.271061,235.880772 48.271061,235.880772 C48.271061,235.880772 45.4202026,240.621564 48.2575498,239.931334 Z" id="Path" fill="#DFE5EE"></path>
                <path d="M61,200.116493 C61.1341223,200.665348 61.2370007,201.221254 61.3081472,201.781575 C61.3081472,201.781575 69.2325887,220.193269 70.2352168,221.288117 C70.543364,221.625695 71.7115637,223.281653 73.174113,225.393797 L74.8528252,227.852643 C77.8837057,232.318711 81.2917214,237.391507 81.2917214,237.391507 L88.7148489,243.860234 C88.7148489,243.860234 104.86728,245.142118 110,239.94159 C109.379106,239.512775 108.983574,239.284681 108.983574,239.284681 L106.775953,237.583105 C105.635348,235.676245 101.279895,233.815003 96.8646518,232.359768 C92.7989488,232.387139 89.4737188,232.715593 89.4737188,232.715593 L88.4159001,229.951102 L87.3120894,227.068002 L81.6826544,212.433534 C81.6826544,212.433534 78.0630749,193.92604 76.8580815,193.027352 C75.653088,192.128665 75.9382392,189.345926 75.9382392,189.345926 C75.9382392,189.345926 78.1458607,181.485829 77.3409987,180.390981 C76.5361367,179.296133 78.6471748,171.230753 78.6471748,171.230753 C78.4377378,170.44405 78.1122797,169.692351 77.6813403,169 L62.1911958,198.195947 C62.1911958,198.195947 61.6944809,199.021645 61,200.116493 Z" id="Path" fill="#000000" opacity="0.1"></path>
                <path d="M78.5381192,170.424502 C78.5381192,170.424502 76.4539043,178.461845 77.2502746,179.553505 C78.0466449,180.645165 75.8577642,188.482371 75.8577642,188.482371 C75.8577642,188.482371 75.5619695,191.261554 76.7679017,192.153076 C77.9738339,193.044598 81.541573,211.502743 81.541573,211.502743 L89.232235,231.74848 C89.232235,231.74848 113.300822,229.365023 110.820697,236.906571 C108.340572,244.44812 88.4813716,242.860665 88.4813716,242.860665 L81.1365618,236.410776 C81.1365618,236.410776 71.2069615,221.427748 70.2149116,220.336088 C69.2228617,219.244429 61.3774763,200.886353 61.3774763,200.886353 C61.3774763,200.886353 60.9815665,197.215648 59.2932614,195.327986 C57.6049563,193.440325 58.8973515,190.256318 58.8973515,190.256318 C58.8973515,190.256318 56.8131366,166.253452 58.9974667,163.378749 C61.1817967,160.504045 76.2627754,161.791294 78.5381192,170.424502 Z" id="Path" fill="#EE8E9E"></path>
                <path d="M149,247 C149,247 142.841239,249.188808 141.19293,252.307501 C139.544622,255.426195 149,247 149,247 Z" id="Path" fill="#000000" opacity="0.1"></path>
                <path d="M147,240 C146.805888,240.297408 138.50423,248.739215 139.023366,250.77989 C139.542501,252.820565 147,240 147,240 Z" id="Path" fill="#000000" opacity="0.1"></path>
                <path d="M101,246 C101,246 91.8237662,250.663334 91.0408111,252.693596 C90.257856,254.723859 101,246 101,246 Z" id="Path" fill="#000000" opacity="0.1"></path>
                <path d="M100,253 C100,253 91.2626205,256.126872 90.0872518,256.911577 C88.9118831,257.696282 100,253 100,253 Z" id="Path" fill="#000000" opacity="0.1"></path>
                <path d="M96,259.560145 C96,259.560145 92.34891,262.353303 90.3363579,260.159005 C88.3238059,257.964707 96,259.560145 96,259.560145 Z" id="Path" fill="#000000" opacity="0.1"></path>
                <path d="M111,188 C110.7907,188.295395 97.8188845,210.262052 94.3939826,211.92253 C90.9690807,213.583009 111,188 111,188 Z" id="Path" fill="#000000" opacity="0.1"></path>
                <path d="M109,196 C109,196.501484 97.1219543,222.68448 95.1675651,222.997332 C93.2131759,223.310185 109,196 109,196 Z" id="Path" fill="#000000" opacity="0.1"></path>
                <path d="M64,213 C64,213 57.7722316,225.253943 55.3470881,225.972662 C52.9219446,226.691382 64,213 64,213 Z" id="Path" fill="#000000" opacity="0.1"></path>
                <path d="M62,207 C62,207 60.2483106,211 59.1846436,211 C58.1209767,211 62,207 62,207 Z" id="Path" fill="#000000" opacity="0.1"></path>
                <path d="M85.0000034,123.038546 C84.9987107,125.074335 85.3632866,127.093717 86.0762746,129 C85.9490726,124.530804 87.6839606,120.210227 90.8646641,117.074964 C94.0453676,113.9397 98.384816,112.272719 102.841788,112.474001 C103.665879,112.510104 104.643079,112.704156 104.976318,113.453286 C105.10736,113.855558 105.175711,114.275676 105.178963,114.698828 C105.42664,116.61227 107.363028,117.808171 109.182331,118.430942 C111.001635,119.053713 113.028087,119.450843 114.347533,120.854334 C115.554397,122.140492 115.896643,123.986241 116.491069,125.651477 C116.825369,126.671124 117.392859,127.598354 118.148256,128.359178 C120.248474,121.960342 118.389111,114.922226 113.404529,110.403082 C108.419946,105.883939 101.246284,104.732493 95.1026185,107.46544 C88.958953,110.198387 84.9991067,116.30246 85.0000034,123.038546 Z" id="Path" fill="#000000" opacity="0.1"></path>
                <path d="M117.06522,106.872617 C115.648221,104.937094 113.134191,104.265867 110.94927,103.291209 C105.47285,100.794682 101.456516,95.8856931 100.074946,90 C98.2809386,92.6531599 98.558298,96.2032896 100.742307,98.5420498 C96.7701386,98.2708006 92.3820128,97.8110563 89.6897148,94.8640951 C89.0772056,96.9881139 90.9101623,99.4017717 89.9091211,101.369477 C89.0497798,103.061337 86.7094461,103.208455 85.1964569,104.357816 C83.5829065,105.562346 83.0481036,107.746131 82.9475424,109.764409 C82.8469812,111.782687 83.0572456,113.851536 82.4630202,115.782462 C82.0059238,117.249047 81.0917309,118.596098 81.0003116,120.127046 C80.989908,121.267667 81.2401257,122.395451 81.7316659,123.423413 C82.8595908,126.161953 84.3879216,128.715662 86.2660625,131 C85.23015,126.036843 86.5335427,120.870772 89.7969966,117.004942 C93.0604506,113.139113 97.9174072,111.007744 102.954653,111.230993 C103.79114,111.267773 104.783039,111.470061 105.12129,112.233236 C105.255168,112.642838 105.32457,113.07097 105.326984,113.502131 C105.578387,115.446849 107.543901,116.665172 109.390571,117.299619 C111.237241,117.934066 113.294175,118.343238 114.633467,119.768446 C115.858486,121.078717 116.205879,122.959072 116.809246,124.655528 C117.412613,126.351985 118.578209,128.126598 120.356314,128.333483 C120.76313,125.814084 121.174517,123.276295 120.923114,120.720117 C120.648856,117.984638 118.82047,116.435299 118.180535,114.053824 C117.485749,111.557412 118.802187,109.244898 117.06522,106.872617 Z" id="Path" fill="#603556"></path>
                <path d="M66.4631659,155.368125 L60.1939326,159.140685 C60.1939326,159.140685 58.4007676,165.193164 57,165.966789 C57,165.966789 69.5430294,159.017815 78.9970698,175 C78.9970698,175 78.7004903,172.915763 79.9917516,171.923702 C81.2830129,170.931642 80.9864335,166.663052 80.9864335,166.663052 C81.3345555,165.986716 81.6393505,165.289055 81.8989856,164.574264 C82.7659102,162.412664 78.0890804,149.907242 66.4631659,155.368125 Z" id="Path" fill="#000000" opacity="0.1"></path>
                <path d="M66.4646268,154.365881 L60.1928862,158.133632 C60.1928862,158.133632 58.4003086,164.182941 57,164.978304 C57,164.978304 69.5389201,158.033644 78.9898631,174 C78.9898631,174 78.6933808,171.91842 79.9887803,170.927624 C81.2841799,169.936828 80.9831363,165.669134 80.9831363,165.669134 C81.3334214,164.9963 81.638185,164.30089 81.8953895,163.587554 C82.7802751,161.405985 78.0867324,148.911959 66.4646268,154.365881 Z" id="Path" fill="#DFE5EE"></path>
                <g id="Group" opacity="0.1" transform="translate(81.000000, 93.000000)" fill="#000000">
                    <path d="M9.17172414,8.13104651 C9.14931034,6.51662791 8.19896552,4.73895349 8.66068966,3.14267442 L8.74137931,3.22883721 C8.85344828,4.87953488 9.75896552,6.61639535 9.17172414,8.13104651 Z" id="Path"></path>
                    <path d="M2.24586207,16.6430233 C2.15172414,18.4569767 2.31310345,20.2709302 1.90965517,22.035 C2.05758621,20.6518605 1.97689655,19.227907 2.04862069,17.8311628 C2.07826679,17.1689552 2.16374966,16.5105173 2.30413793,15.8630233 C2.27724138,16.1396512 2.25482759,16.3845349 2.24586207,16.6430233 Z" id="Path"></path>
                    <path d="M0.138965517,28.0527907 C0.164572149,27.6929911 0.229213549,27.3371313 0.331724138,26.9916279 C0.348515031,28.0733853 0.594633011,29.1388952 1.05344828,30.1161628 C2.06589961,32.587384 3.40826732,34.906625 5.04310345,37.009186 C5.09647778,37.6032401 5.18328528,38.1937329 5.30310345,38.7777907 C3.46120496,36.5245373 1.96236628,34.0055775 0.856206897,31.3043023 C0.374151949,30.2903282 0.1287626,29.1778905 0.138965517,28.0527907 Z" id="Path"></path>
                    <path d="M19.6972414,5.58244186 C19.3206897,5.55976744 18.9351724,5.53255814 18.5541379,5.50081395 C17.7000808,3.94375058 17.4675049,2.11505471 17.9041379,0.39 C17.7376369,2.30091797 18.3907183,4.1921011 19.6972414,5.58244186 Z" id="Path"></path>
                    <path d="M8.95655172,23.7809302 C12.1809846,19.9991608 16.928884,17.9037447 21.8624138,18.0851163 C22.6827586,18.1259302 23.6555172,18.3209302 23.9917241,19.0737209 C24.1204093,19.4783897 24.1884061,19.9002865 24.1934483,20.3253488 C24.44,22.2436047 26.3631034,23.4498837 28.1786207,24.0711628 C29.9941379,24.6924419 32.0024138,25.1005814 33.3158621,26.5109302 C34.5217241,27.8033721 34.8624138,29.6581395 35.4541379,31.3269767 C36.0458621,32.995814 37.1844828,34.7462791 38.9237931,34.9548837 L38.7355172,36.1430233 C36.9917241,35.9525581 35.8486207,34.202093 35.2568966,32.5151163 C34.6651724,30.8281395 34.3244828,28.9869767 33.1231034,27.6945349 C31.8096552,26.2887209 29.7924138,25.8805814 27.9813793,25.2593023 C26.1703448,24.6380233 24.2427586,23.4453488 23.9962069,21.5134884 C23.9938394,21.0881949 23.9257766,20.665889 23.7944828,20.2618605 C23.4448276,19.5090698 22.49,19.3095349 21.6696552,19.2732558 C13.7950294,18.9016947 6.83704563,24.4151709 5.30758621,32.2384884 C5.6975528,29.1237935 6.96414546,26.1880899 8.95655172,23.7809302 Z" id="Path"></path>
                </g>
                <polygon id="Path" fill="#3A3768" points="196 154 196 171 179 169.696652 179 154"></polygon>
                <polygon id="Path" fill="#000000" opacity="0.1" points="196 169.451613 196 171 179 169.548387 179 168"></polygon>
                <path d="M201,172 L175,170.62069 C175,169.173323 176.139275,168 177.544643,168 L198.455357,169.37931 C199.860725,169.37931 201,170.552633 201,172 Z" id="Path" fill="#3A3768"></path>
                <path d="M233.217678,159 L141.782325,156.289618 C141.044038,156.290819 140.335642,155.999461 139.813594,155.479892 C139.291545,154.960323 138.998796,154.255291 139.000004,153.52051 L139.000004,99.7645937 C139.000003,99.0305955 139.293284,98.3267258 139.815202,97.8081345 C140.337119,97.2895433 141.044826,96.9988044 141.782325,97.0000037 L233.217678,99.710386 C234.752541,99.710384 235.997496,100.947405 236,102.474976 L236,156.230893 C236,157.760228 234.754312,159 233.217678,159 Z" id="Path" fill="#3A3768"></path>
                <polygon id="Path" fill="#FFFFFF" points="235 154 142 151.297297 142 103 235 105.702703"></polygon>
                <circle id="Oval" fill="#FFFFFF" cx="188" cy="101" r="1"></circle>
                <polygon id="Path" fill="#000000" opacity="0.1" points="196 156.472441 179 156 179 157 196 157"></polygon>
                <polygon id="Path" fill="#000000" opacity="0.1" points="165.142218 173 188 174.586842 183.129696 182 158 179.157895"></polygon>
                <polygon id="Path" fill="#3A3768" points="164.142218 172 187 173.586842 182.129696 181 157 178.157895"></polygon>
                <polygon id="Path" fill="#D5E1F4" points="165.429231 173 186 174.230769 181.62 180 159 177.78733"></polygon>
                <ellipse id="Oval" fill="#FFFFFF" opacity="0.1" cx="401" cy="359.5" rx="29" ry="4.5"></ellipse>
                <path d="M417.361944,254 C417.361944,254 420.76311,258.169474 415.787772,264.46614 C410.812434,270.762805 406.724356,276.085253 408.370082,280 C408.370082,280 415.878406,268.304916 421.984286,268.144036 C428.090167,267.983156 424.097493,261.020626 417.361944,254 Z" id="Path" fill="#FFFFFF"></path>
                <path d="M417.730502,254 C418.010679,254.402629 418.232262,254.841857 418.388808,255.304916 C424.063861,261.869715 427.087529,267.992094 421.634938,268.144036 C416.554631,268.28704 410.461894,277.22482 409,279.486078 C409.048608,279.660157 409.106189,279.831686 409.172522,280 C409.172522,280 416.318549,268.304916 422.129803,268.144036 C427.941057,267.983156 424.141042,261.020626 417.730502,254 Z" id="Path" fill="#000000" opacity="0.1"></path>
                <path d="M423,259.783086 C423,260.994999 422.775758,262 422.50303,262 C422.230303,262 422,261.013473 422,259.783086 C422,258.552698 422.278788,259.14018 422.557576,259.14018 C422.836364,259.14018 423,258.571172 423,259.783086 Z" id="Path" fill="#FFD037"></path>
                <path d="M425.277579,261.008827 C424.111285,261.712512 423.090777,262.138309 423.005735,261.959026 C422.920693,261.779743 423.791364,261.062612 424.957658,260.358926 C426.123952,259.655241 425.666344,260.170679 425.767585,260.358926 C425.868826,260.547173 426.447923,260.305142 425.277579,261.008827 Z" id="Path" fill="#FFD037"></path>
                <path d="M399.64142,254 C399.64142,254 396.234972,258.169474 401.211058,264.46614 C406.187144,270.762805 410.275835,276.085253 408.629863,280 C408.629863,280 401.125181,268.304916 395.013612,268.144036 C388.902044,267.983156 392.919171,261.020626 399.64142,254 Z" id="Path" fill="#FFFFFF"></path>
                <path d="M400.272712,254 C399.989749,254.4017 399.766513,254.841106 399.609765,255.304916 C393.938391,261.869715 390.914263,267.992094 396.367682,268.144036 C401.448762,268.28704 407.542425,277.22482 409,279.486078 C408.953452,279.660765 408.895823,279.832409 408.827452,280 C408.827452,280 401.68488,268.304916 395.868202,268.144036 C390.051524,267.983156 393.87482,261.020626 400.272712,254 Z" id="Path" fill="#000000" opacity="0.1"></path>
                <path d="M394,259.783086 C394,260.994999 394.219512,262 394.5,262 C394.780488,262 395,261.013473 395,259.783086 C395,258.552698 394.719512,259.14018 394.445122,259.14018 C394.170732,259.14018 394,258.571172 394,259.783086 Z" id="Path" fill="#FFD037"></path>
                <path d="M391.721286,261.008827 C392.889951,261.712512 393.90495,262.138309 393.993914,261.959026 C394.082879,261.779743 393.18515,261.062612 392.040748,260.358926 C390.896346,259.655241 391.337123,260.170679 391.231983,260.358926 C391.126844,260.547173 390.556665,260.305142 391.721286,261.008827 Z" id="Path" fill="#FFD037"></path>
                <ellipse id="Oval" fill="#FFFFFF" opacity="0.1" cx="409" cy="308" rx="34" ry="5"></ellipse>
                <path d="M426.992765,274.974638 L426.82875,276.297101 L426.60095,278.158514 L426.505274,278.9375 L426.277474,280.798913 L426.181799,281.577899 L425.953999,283.439312 L423.352526,304.634964 C423.120171,306.52808 420.008427,308 416.254288,308 L402.74121,308 C398.987071,308 395.884439,306.52808 395.652083,304.634964 L393.046055,283.439312 L392.818255,281.577899 L392.722579,280.798913 L392.490223,278.9375 L392.394548,278.158514 L392.166748,276.297101 L392.007288,274.974638 C391.875164,273.905797 393.556326,273 395.679419,273 L423.320634,273 C425.43006,273 427.124889,273.905797 426.992765,274.974638 Z" id="Path" fill="#65617D"></path>
                <polygon id="Path" fill="#9D9CB5" points="427 276 426.769949 278 392.230051 278 392 276"></polygon>
                <polygon id="Path" fill="#9D9CB5" points="426 278 425.772301 280 392.232253 280 392 278"></polygon>
                <polygon id="Path" fill="#9D9CB5" points="426 282 425.774683 284 393.225317 284 393 282"></polygon>
            </g>
        </g>
    </g>
</svg>