<?xml version="1.0" encoding="UTF-8"?>
<svg width="50px" height="64px" viewBox="0 0 50 64" version="1.1" xmlns="http://www.w3.org/2000/svg" xmlns:xlink="http://www.w3.org/1999/xlink">
    <!-- Generator: Sketch 52.5 (67469) - http://www.bohemiancoding.com/sketch -->
    <title>Icon/Book</title>
    <desc>Created with Sketch.</desc>
    <g id="1001" stroke="none" stroke-width="1" fill="none" fill-rule="evenodd">
        <g id="Desktop-HD-1440" transform="translate(-240.000000, -1081.000000)" fill="#66BB6A">
            <g id="2-About" transform="translate(192.000000, 796.000000)">
                <g id="Author" transform="translate(0.000000, 236.000000)">
                    <g id="Icon/Book" transform="translate(48.000000, 49.000000)">
                        <g id="book-reference">
                            <path d="M12.5,12.8 L9.375,12.8 C7.64911016,12.8 6.25,11.3673112 6.25,9.6 C6.25,7.8326888 7.64911016,6.4 9.375,6.4 L43.75,6.4 L43.75,3.2 C43.75,1.4326888 42.3508898,1.082166e-16 40.625,0 L6.25,0 C2.79822031,-2.164332e-16 0,2.8653776 0,6.4 L0,57.6 C0,61.12 2.8125,64 6.25,64 L43.75,64 C47.2017797,64 50,61.1346224 50,57.6 L50,16 C50,14.2326888 48.6008898,12.8 46.875,12.8 L25,12.8 L25,38.4 L18.75,32 L12.5,38.4 L12.5,12.8 Z" id="Path"></path>
                        </g>
                    </g>
                </g>
            </g>
        </g>
    </g>
</svg>