<?xml version="1.0" encoding="UTF-8"?>
<svg width="601px" height="499px" viewBox="0 0 601 499" version="1.1" xmlns="http://www.w3.org/2000/svg" xmlns:xlink="http://www.w3.org/1999/xlink">
    <!-- Generator: Sketch 52.5 (67469) - http://www.bohemiancoding.com/sketch -->
    <title>undraw_on_the_office_fbfs</title>
    <desc>Created with Sketch.</desc>
    <defs>
        <linearGradient x1="49.9932333%" y1="99.9996569%" x2="49.9932333%" y2="-0.0100913522%" id="linearGradient-1">
            <stop stop-color="#808080" stop-opacity="0.25" offset="0%"></stop>
            <stop stop-color="#808080" stop-opacity="0.12" offset="54%"></stop>
            <stop stop-color="#808080" stop-opacity="0.1" offset="100%"></stop>
        </linearGradient>
    </defs>
    <g id="1001" stroke="none" stroke-width="1" fill="none" fill-rule="evenodd">
        <g id="Desktop-HD-1440" transform="translate(-719.000000, -76.000000)">
            <g id="1-Header" transform="translate(120.000000, -224.000000)">
                <g id="undraw_on_the_office_fbfs" transform="translate(599.000000, 300.000000)">
                    <path d="M599.883701,164 L545,164 L545,230.951648 L595.872188,230.951648 C596.003518,231.642491 596.128878,232.333333 596.278115,233.018168 L545,233.018168 L545,287 L545.256689,286.915897 C546.705291,286.403272 548.143943,285.858608 549.572647,285.281905 L550.491952,284.903443 C551.956472,284.298706 553.395125,283.651917 554.80791,282.963077 C555.315318,282.728791 555.816757,282.482491 556.312227,282.230183 C564.2042,278.319836 571.479764,273.259254 577.903955,267.211868 C578.08901,267.04967 578.262126,266.881465 578.429272,266.719267 C579.30679,265.866227 580.1664,265.007179 581.002132,264.124103 L581.921437,263.138901 C582.906407,262.06359 583.855559,260.952234 584.780834,259.828864 L585.18676,259.336264 C588.906418,254.746717 592.031605,249.700211 594.487261,244.317949 C594.564865,244.155751 594.63053,243.987546 594.702164,243.825348 C595.448353,242.131282 596.122908,240.413187 596.70792,238.665055 C596.95864,237.926154 597.19742,237.187253 597.406353,236.448352 C597.477987,236.226081 597.543652,236.009817 597.603347,235.793553 C600.647799,225.070476 601,213.926886 601,202.84337 C601,201.551795 601,200.254212 601,198.968645 C601,194.493187 600.934335,189.957656 600.850762,185.482198 C600.850762,184.316777 600.797037,183.157363 600.767189,181.985934 C600.695555,179.010305 600.588104,176.038681 600.444835,173.071062 C600.409018,172.242051 600.373201,171.419048 600.319476,170.602051 C600.319476,170.127473 600.271719,169.652894 600.241872,169.178315 C600.122482,167.418168 600.01503,165.712088 599.883701,164 Z" id="Path" fill="#81C784" opacity="0.1"></path>
                    <path d="M545.01843,90 L576,90 C570.920829,82.9065679 565.411994,76.1341713 559.504756,69.7212421 C554.897146,64.6700776 550.062228,59.7424135 545,55 L545.01843,90 Z" id="Path" fill="#81C784" opacity="0.1"></path>
                    <path d="M545,92.018171 L545,163 L600,163 C600,162.794062 599.963993,162.582068 599.94599,162.394301 C599.897981,161.837059 599.849973,161.279816 599.795963,160.716516 C599.741953,160.153216 599.66994,159.408207 599.597927,158.747995 C599.525914,158.087784 599.453901,157.324603 599.369885,156.621993 C599.28587,155.919382 599.213857,155.198601 599.123841,154.489933 C599.033824,153.781266 598.949809,153.072599 598.853792,152.369988 C598.757774,151.667378 598.667758,150.952653 598.559738,150.250043 C598.475723,149.644344 598.397709,149.087101 598.307692,148.499573 C598.181669,147.675823 598.049645,146.846016 597.91162,146.028323 C597.895969,145.906095 597.873935,145.784786 597.845608,145.664904 C596.852632,139.646533 595.501948,133.693884 593.800873,127.839191 C592.002347,121.636404 589.720827,115.586822 586.977632,109.746972 C584.019435,103.569756 580.586309,97.6359445 576.709765,92 L545,92.018171 Z" id="Path" fill="#81C784" opacity="0.1"></path>
                    <path d="M413.456699,163.997874 L413.456699,231.07779 L532,231.07779 L532,163.997874 L413.456699,163.997874 Z M413.456699,233.148269 L413.456699,278.572417 C427.255965,274.172648 443.035178,275.948205 457.341504,279.559505 C468.418342,282.364283 479.211469,286.180224 490.270199,288.924813 C495.209503,290.182729 500.223729,291.12757 505.282786,291.753665 L506.526289,291.88608 C507.129932,291.946268 507.733574,292.006456 508.337217,292.054607 L510.148144,292.181002 L510.335273,292.181002 L511.144154,292.181002 C511.236615,292.186988 511.329368,292.186988 511.421829,292.181002 L512.39973,292.217115 L512.429912,292.217115 C512.894717,292.217115 513.365558,292.217115 513.836399,292.253228 L514.440042,292.253228 C514.904846,292.253228 515.375687,292.253228 515.846528,292.253228 L516.878757,292.253228 L517.711784,292.253228 C518.067933,292.253228 518.418045,292.253228 518.768158,292.217115 C519.335582,292.217115 519.903006,292.168965 520.476466,292.126833 L521.53284,292.060626 L522.836708,291.958306 C523.760281,291.88608 524.647635,291.789778 525.583281,291.681439 C525.945466,291.639307 526.313688,291.597175 526.675874,291.543006 L527.213116,291.476799 C528.124616,291.356422 529.024043,291.21197 529.935543,291.061499 C530.605586,290.959179 531.275629,290.832783 531.951709,290.712407 L531.951709,233.148269 L413.456699,233.148269 Z M501.624713,89.2981134 L501.624713,91.3685927 L413.456699,91.3685927 L413.456699,161.927395 L532,161.927395 L532,91.392668 L526.054122,91.392668 L526.054122,89.3221888 L532,89.3221888 L532,43.7355328 C508.940859,25.2155776 481.988224,10.7101853 451.969086,4.011222 C439.326088,1.22085726 426.405056,-0.122003056 413.456699,0.00869674709 L413.456699,89.3221888 L501.624713,89.2981134 Z M230.58926,88.9008703 L231.005773,89.2981134 L400.194675,89.2981134 L400.194675,0.628636748 C370.072917,3.12645326 340.699676,13.2140207 317.018784,29.9283254 C305.640124,37.9514324 295.420458,47.4611916 282.65342,53.6184598 C275.953921,56.9331017 268.635051,58.8189837 261.163749,59.1557879 L230.58926,88.9008703 Z M229.42423,52.5230318 L229.42423,72.5958464 L245.770867,56.6880656 C239.692188,54.593511 234.899267,53.1610283 229.400085,52.5471071 L229.42423,52.5230318 Z M228.880952,305.049272 L229.42423,305.049272 L229.42423,349.046955 C235.593456,348.589524 241.738536,347.959552 247.85947,347.157041 C275.230392,343.640418 302.050515,336.712781 327.691182,326.536512 C330.443792,325.437072 333.17628,324.301518 335.888646,323.129852 C337.695549,322.347403 339.492392,321.544892 341.279173,320.722318 C343.959346,319.494475 346.619397,318.232526 349.259326,316.936471 C360.941765,311.211445 372.210781,304.683319 382.984829,297.399332 C383.654872,296.94792 384.330952,296.490488 384.994958,296.027038 C386.33102,295.10415 387.657021,294.173237 388.972962,293.234299 C389.630932,292.758811 390.288902,292.283323 390.940836,291.801816 L392.280922,290.778614 C393.633081,289.773468 394.979204,288.762304 396.343436,287.769196 C397.605049,286.866371 398.878734,285.963546 400.170529,285.120909 L400.170529,233.118175 L264.260435,233.118175 C264.357018,232.811214 264.447564,232.516291 264.550183,232.191274 C264.441528,232.504254 264.344945,232.793158 264.254399,233.118175 L229.400085,233.118175 L229.400085,305.037234 L228.880952,305.049272 Z M229.42423,91.3806303 L229.42423,161.927395 L400.194675,161.927395 L400.194675,91.392668 L229.42423,91.3806303 Z M229.42423,163.985837 L229.42423,231.07779 L400.194675,231.07779 L400.194675,163.997874 L229.42423,163.985837 Z M195.282214,54.5874922 L216.144097,74.8890225 L216.144097,52.4327493 C209.153917,52.8661054 202.199957,53.584353 195.282214,54.5874922 Z M50.0156627,163.997874 L50.0156627,231.07779 L216.144097,231.07779 L216.144097,163.997874 L50.0156627,163.997874 Z M90.1699574,329.666307 C115.350285,339.224283 141.677717,345.452581 168.48049,348.192281 L168.595182,348.192281 C173.661754,348.725951 178.742412,349.139244 183.837154,349.432161 L184.024283,349.432161 C194.702718,350.034044 205.423407,350.172477 216.125987,349.775234 L216.125987,233.148269 L50.0156627,233.148269 L50.6193051,310.381959 L90.1699574,329.666307 Z M4,231.07779 L36.7657113,231.07779 L36.7657113,163.997874 L23.8055082,163.997874 C22.4593856,166.357257 21.155518,168.728678 19.918051,171.136212 C19.2540443,172.416218 18.6081469,173.710268 17.9803588,175.018361 C9.45089117,192.671604 4.03018212,212.076328 4,231.07779 Z M4,233.148269 C4.26560267,246.774911 7.34417908,260.148763 14.0989379,272.505431 C19.7128125,282.767545 27.5118728,291.765703 36.7415656,299.590188 L36.7415656,233.148269 L4,233.148269 Z M24.9946838,161.927395 L36.7415656,161.927395 L36.7415656,144.472774 C32.5076652,150.066379 28.5938591,155.893859 25.0188295,161.927395 L24.9946838,161.927395 Z M98.5968057,89.3221888 L212.226457,89.3221888 L212.636934,88.9249457 L212.033292,88.3230622 L180.082498,57.2478173 C170.599106,59.2215161 161.23402,61.7232501 152.031234,64.7412668 C151.161989,65.024152 150.292744,65.3431503 149.429535,65.6139979 C131.660327,71.6235266 114.612399,79.5746148 98.5968057,89.3221888 Z M50.0156627,128.667313 L50.0156627,161.927395 L195.7108,161.927395 L195.740983,161.927395 L216.162206,161.927395 L216.162206,93.3126764 L213.832146,91.4227622 L95.2526266,91.4227622 C78.6280903,101.843566 63.423284,114.362005 50.0156627,128.667313 Z" id="Shape" fill="#81C784" fill-rule="nonzero" opacity="0.1"></path>
                    <path d="M545,127 L545,162 L600,162 C600,161.79511 599.963993,161.584194 599.94599,161.397383 C599.897981,160.842975 599.849973,160.288567 599.795963,159.728134 C599.741953,159.1677 599.66994,158.426481 599.597927,157.769628 C599.525914,157.112775 599.453901,156.353478 599.369885,155.654442 C599.28587,154.955406 599.213857,154.238292 599.123841,153.53323 C599.033824,152.828168 598.949809,152.123106 598.853792,151.42407 C598.757774,150.725034 598.667758,150.013946 598.559738,149.31491 C598.475723,148.712293 598.397709,148.157886 598.307692,147.573347 C598.181669,146.753788 598.049645,145.928202 597.91162,145.114669 C597.895969,144.993063 597.873935,144.872372 597.845608,144.753099 C596.852632,138.765348 595.501948,132.842984 593.800873,127.018079 L545,127 Z" id="Path" fill="#81C784" opacity="0.1"></path>
                    <path d="M599.883701,164 L545,164 L545,230.951648 L595.872188,230.951648 C596.003518,231.642491 596.128878,232.333333 596.278115,233.018168 L545,233.018168 L545,287 L545.256689,286.915897 C546.705291,286.403272 548.143943,285.858608 549.572647,285.281905 L550.491952,284.903443 C551.956472,284.298706 553.395125,283.651917 554.80791,282.963077 C555.315318,282.728791 555.816757,282.482491 556.312227,282.230183 C564.2042,278.319836 571.479764,273.259254 577.903955,267.211868 C578.08901,267.04967 578.262126,266.881465 578.429272,266.719267 C579.30679,265.866227 580.1664,265.007179 581.002132,264.124103 L581.921437,263.138901 C582.906407,262.06359 583.855559,260.952234 584.780834,259.828864 L585.18676,259.336264 C588.906418,254.746717 592.031605,249.700211 594.487261,244.317949 C594.564865,244.155751 594.63053,243.987546 594.702164,243.825348 C595.448353,242.131282 596.122908,240.413187 596.70792,238.665055 C596.95864,237.926154 597.19742,237.187253 597.406353,236.448352 C597.477987,236.226081 597.543652,236.009817 597.603347,235.793553 C600.647799,225.070476 601,213.926886 601,202.84337 C601,201.551795 601,200.254212 601,198.968645 C601,194.493187 600.934335,189.957656 600.850762,185.482198 C600.850762,184.316777 600.797037,183.157363 600.767189,181.985934 C600.695555,179.010305 600.588104,176.038681 600.444835,173.071062 C600.409018,172.242051 600.373201,171.419048 600.319476,170.602051 C600.319476,170.127473 600.271719,169.652894 600.241872,169.178315 C600.122482,167.418168 600.01503,165.712088 599.883701,164 Z" id="Path" fill="#81C784" opacity="0.1"></path>
                    <polygon id="Path" fill="#81C784" opacity="0.1" points="490 101.489547 490 162 532 162 532 101.489547 526.015623 101.489547 526.015623 81 501.428034 81 501.428034 101.489547"></polygon>
                    <rect id="Rectangle" fill="#81C784" opacity="0.1" x="490" y="164" width="42" height="67"></rect>
                    <path d="M532,233 L490,233 L490,288.643497 C494.970478,289.896077 500.01573,290.838638 505.105903,291.465601 L506.357639,291.5977 C506.965278,291.663749 507.572917,291.71779 508.180556,291.765825 L510.003472,291.891919 C510.064236,291.891919 510.131076,291.891919 510.19184,291.891919 C510.459201,291.891919 510.732639,291.891919 511.006076,291.927946 L511.28559,291.927946 C511.613715,291.927946 511.94184,291.927946 512.276042,291.963973 C512.743924,291.963973 513.217882,291.963973 513.69184,292 L514.299479,292 C514.773438,292 515.241319,292 515.715278,292 L516.75434,292 L517.592882,292 L518.662326,291.963973 C519.227431,291.963973 519.804688,291.915937 520.375868,291.873906 L521.43316,291.807857 L522.751736,291.705781 C523.675347,291.627722 524.574653,291.537655 525.510417,291.429575 L526.610243,291.291472 L527.151042,291.225422 C528.068576,291.099328 528.973958,290.96723 529.891493,290.811113 C530.572049,290.709037 531.240451,290.582943 531.921007,290.462854 L532,233 Z" id="Path" fill="#81C784" opacity="0.1"></path>
                    <rect id="Rectangle" fill="#81C784" opacity="0.1" x="229" y="94" width="35" height="68"></rect>
                    <polygon id="Path" fill="#81C784" opacity="0.1" points="229 164 229 231 400 231 400 202.101929 308.915636 202.101929 308.915636 219.151009 263.449 219.151009 263.449 164"></polygon>
                    <path d="M229,305.939683 L229.542207,305.939683 L229.542207,350 C235.699267,349.533945 241.832229,348.903163 247.941094,348.107654 C275.266379,344.572737 302.041122,337.626217 327.63948,327.430463 C334.965297,324.489492 342.140502,321.28737 349.165093,317.824096 C360.824667,312.08976 372.071466,305.551219 382.824091,298.255795 C385.511027,296.43175 388.155792,294.56552 390.758385,292.657103 C392.565741,291.325229 394.373098,289.969249 396.180454,288.649428 C397.439579,287.745441 398.710753,286.841455 400,285.991707 L400,233.922067 L264.339839,233.922067 C264.436232,233.614711 264.526599,233.319409 264.622992,233 C264.520575,233.307356 264.418158,233.602658 264.32779,233.922067 L229.542207,233.922067 L229.542207,305.90955 L229,305.939683 Z" id="Path" fill="#81C784" opacity="0.1"></path>
                    <path d="M139,88 L162,88 L162,81.9529873 L151.695207,81.9529873 L151.695207,64 C150.803446,64.2761998 149.911686,64.5876592 149.026117,64.8521058 L149.026117,81.9529873 L139,81.9529873 L139,88 Z" id="Path" fill="#81C784" opacity="0.1"></path>
                    <polygon id="Path" fill="#81C784" opacity="0.1" points="85 163 195.490542 163 195.454188 163 195.508718 163 216 163 216 94.9808004 210.195551 94.9808004 210.195551 145.266661 183.657463 145.266661 183.657463 115.507125 161.730216 115.507125 161.730216 92 139.227372 92 139.227372 115.507125 117.306184 115.507125 117.306184 145.260602 85 145.260602"></polygon>
                    <path d="M84.5873696,163 L84.5873696,230.43979 L215,230.43979 L215,163 L84.5873696,163 Z M89.1413466,329.557219 C114.302207,339.166473 140.609286,345.428185 167.391338,348.182582 L167.505941,348.182582 C172.568596,348.719116 177.645325,349.134626 182.736129,349.429114 L182.923113,349.429114 C193.593292,350.034227 204.305694,350.173403 215,349.774028 L215,232.521377 L84.5873696,232.521377 L84.5873696,256.429372 L49,256.429372 L49.1869845,309.806347 L89.1413466,329.557219 Z" id="Shape" fill="#81C784" fill-rule="nonzero" opacity="0.1"></path>
                    <path d="M33.681969,233 L3,233 C3.26769912,246.7411 6.37665929,260.227285 13.1786504,272.687743 C18.8368363,283.042123 26.7035398,292.109793 36,300 L36,256.980161 L33.681969,256.980161 L33.681969,233 Z" id="Path" fill="#81C784" opacity="0.1"></path>
                    <path d="M4,231 L35,231 L35,175 L18.2254805,175 C9.54646325,192.634529 4.03071131,212.018682 4,231 Z" id="Path" fill="#81C784" opacity="0.1"></path>
                    <rect id="Rectangle" fill="#81C784" opacity="0.1" x="230" y="113" width="18" height="21"></rect>
                    <rect id="Rectangle" fill="#81C784" opacity="0.1" x="230" y="158" width="18" height="4"></rect>
                    <rect id="Rectangle" fill="#81C784" opacity="0.1" x="230" y="163" width="18" height="15"></rect>
                    <rect id="Rectangle" fill="#81C784" opacity="0.1" x="230" y="201" width="18" height="21"></rect>
                    <rect id="Rectangle" fill="#81C784" opacity="0.1" x="230" y="245" width="18" height="21"></rect>
                    <polygon id="Path" fill="#81C784" opacity="0.1" points="229.543893 306.125852 229 306.125852 229.543893 306.125852 229.543893 311 248 311 248 290 229.543893 290"></polygon>
                    <path d="M230,333 L230,349 C236.023576,348.544931 242.023576,347.929018 248,347.152262 L248,333.029423 L230,333 Z" id="Path" fill="#81C784" opacity="0.1"></path>
                    <rect id="Rectangle" fill="#81C784" opacity="0.1" x="321" y="230" width="79" height="2"></rect>
                    <rect id="Rectangle" fill="#81C784" opacity="0.1" x="321" y="234" width="79" height="6"></rect>
                    <rect id="Rectangle" fill="#81C784" opacity="0.1" x="321" y="259" width="79" height="10"></rect>
                    <path d="M321,288 L321,298 L382.64994,298 C385.327579,296.105395 387.971096,294.160602 390.58049,292.165621 C392.386993,290.785445 394.193497,289.373902 396,288.006274 L321,288 Z" id="Path" fill="#81C784" opacity="0.1"></path>
                    <path d="M321,317 L321,327 L327.486556,327 C334.806267,323.946884 341.977414,320.613551 349,317 L321,317 Z" id="Path" fill="#81C784" opacity="0.1"></path>
                    <rect id="Rectangle" fill="#81C784" opacity="0.1" transform="translate(177.000000, 178.000000) rotate(-180.000000) translate(-177.000000, -178.000000) " x="169" y="171" width="16" height="14"></rect>
                    <rect id="Rectangle" fill="#81C784" opacity="0.1" transform="translate(513.000000, 112.000000) rotate(-180.000000) translate(-513.000000, -112.000000) " x="505" y="105" width="16" height="14"></rect>
                    <rect id="Rectangle" fill="#81C784" opacity="0.1" transform="translate(513.000000, 145.000000) rotate(-180.000000) translate(-513.000000, -145.000000) " x="505" y="138" width="16" height="14"></rect>
                    <rect id="Rectangle" fill="#81C784" opacity="0.1" transform="translate(513.000000, 177.000000) rotate(-180.000000) translate(-513.000000, -177.000000) " x="505" y="170" width="16" height="14"></rect>
                    <rect id="Rectangle" fill="#81C784" opacity="0.1" transform="translate(513.000000, 209.000000) rotate(-180.000000) translate(-513.000000, -209.000000) " x="505" y="202" width="16" height="14"></rect>
                    <rect id="Rectangle" fill="#81C784" opacity="0.1" transform="translate(513.000000, 241.000000) rotate(-180.000000) translate(-513.000000, -241.000000) " x="505" y="234" width="16" height="14"></rect>
                    <rect id="Rectangle" fill="#81C784" opacity="0.1" transform="translate(513.000000, 274.000000) rotate(-180.000000) translate(-513.000000, -274.000000) " x="505" y="267" width="16" height="14"></rect>
                    <rect id="Rectangle" fill="#81C784" opacity="0.1" transform="translate(117.000000, 178.000000) rotate(-180.000000) translate(-117.000000, -178.000000) " x="109" y="171" width="16" height="14"></rect>
                    <rect id="Rectangle" fill="#81C784" opacity="0.1" transform="translate(177.000000, 212.000000) rotate(-180.000000) translate(-177.000000, -212.000000) " x="169" y="205" width="16" height="14"></rect>
                    <rect id="Rectangle" fill="#81C784" opacity="0.1" transform="translate(117.000000, 212.000000) rotate(-180.000000) translate(-117.000000, -212.000000) " x="109" y="205" width="16" height="14"></rect>
                    <rect id="Rectangle" fill="#81C784" opacity="0.1" transform="translate(177.000000, 246.000000) rotate(-180.000000) translate(-177.000000, -246.000000) " x="169" y="239" width="16" height="14"></rect>
                    <rect id="Rectangle" fill="#81C784" opacity="0.1" transform="translate(117.000000, 246.000000) rotate(-180.000000) translate(-117.000000, -246.000000) " x="109" y="239" width="16" height="14"></rect>
                    <rect id="Rectangle" fill="#81C784" opacity="0.1" transform="translate(177.000000, 279.000000) rotate(-180.000000) translate(-177.000000, -279.000000) " x="169" y="272" width="16" height="14"></rect>
                    <rect id="Rectangle" fill="#81C784" opacity="0.1" transform="translate(117.000000, 279.000000) rotate(-180.000000) translate(-117.000000, -279.000000) " x="109" y="272" width="16" height="14"></rect>
                    <rect id="Rectangle" fill="#81C784" opacity="0.1" transform="translate(177.000000, 314.000000) rotate(-180.000000) translate(-177.000000, -314.000000) " x="169" y="307" width="16" height="14"></rect>
                    <rect id="Rectangle" fill="#81C784" opacity="0.1" transform="translate(117.000000, 314.000000) rotate(-180.000000) translate(-117.000000, -314.000000) " x="109" y="307" width="16" height="14"></rect>
                    <polygon id="Path" fill="#81C784" opacity="0.1" points="185 350 185 341 169 341 169 348.720379"></polygon>
                    <path d="M545,145 L545,153 L599,153 L599,145 L545,145 Z M593.622661,145.506484 L598.026199,145.506484 L598.026199,152.499619 L593.598163,152.499619 L593.622661,145.506484 Z M588.245322,145.506484 L592.673358,145.506484 L592.673358,152.499619 L588.226948,152.499619 L588.245322,145.506484 Z M582.880231,145.506484 L587.308268,145.506484 L587.308268,152.499619 L582.880231,152.499619 L582.880231,145.506484 Z M577.502892,145.506484 L581.930929,145.506484 L581.930929,152.499619 L577.502892,152.499619 L577.502892,145.506484 Z M572.131677,145.506484 L576.590337,145.506484 L576.590337,152.499619 L572.1623,152.499619 L572.131677,145.506484 Z M566.754338,145.506484 L571.182375,145.506484 L571.182375,152.499619 L566.754338,152.499619 L566.754338,145.506484 Z M561.376999,145.506484 L565.805036,145.506484 L565.805036,152.499619 L561.376999,152.499619 L561.376999,145.506484 Z M556.005784,145.506484 L560.433821,145.506484 L560.433821,152.499619 L556.005784,152.499619 L556.005784,145.506484 Z M550.63457,145.506484 L555.062606,145.506484 L555.062606,152.499619 L550.63457,152.499619 L550.63457,145.506484 Z M545.263355,145.506484 L549.691392,145.506484 L549.691392,152.499619 L545.263355,152.499619 L545.263355,145.506484 Z" id="Shape" fill="#81C784" fill-rule="nonzero" opacity="0.1"></path>
                    <path d="M545,168 L545,176 L599,176 L599,168 L545,168 Z M593.622661,168.506484 L598.026199,168.506484 L598.026199,175.493516 L593.598163,175.493516 L593.622661,168.506484 Z M588.245322,168.506484 L592.673358,168.506484 L592.673358,175.493516 L588.226948,175.493516 L588.245322,168.506484 Z M582.880231,168.506484 L587.308268,168.506484 L587.308268,175.493516 L582.880231,175.493516 L582.880231,168.506484 Z M577.502892,168.506484 L581.930929,168.506484 L581.930929,175.493516 L577.502892,175.493516 L577.502892,168.506484 Z M572.131677,168.506484 L576.590337,168.506484 L576.590337,175.493516 L572.1623,175.493516 L572.131677,168.506484 Z M566.754338,168.506484 L571.182375,168.506484 L571.182375,175.493516 L566.754338,175.493516 L566.754338,168.506484 Z M561.376999,168.506484 L565.805036,168.506484 L565.805036,175.493516 L561.376999,175.493516 L561.376999,168.506484 Z M556.005784,168.506484 L560.433821,168.506484 L560.433821,175.493516 L556.005784,175.493516 L556.005784,168.506484 Z M550.63457,168.506484 L555.062606,168.506484 L555.062606,175.493516 L550.63457,175.493516 L550.63457,168.506484 Z M545.263355,168.506484 L549.691392,168.506484 L549.691392,175.493516 L545.263355,175.493516 L545.263355,168.506484 Z" id="Shape" fill="#81C784" fill-rule="nonzero" opacity="0.1"></path>
                    <path d="M545,191 L545,199 L599,199 L599,191 L545,191 Z M593.622661,191.500763 L598.026199,191.500763 L598.026199,198.499237 L593.598163,198.499237 L593.622661,191.500763 Z M588.245322,191.500763 L592.673358,191.500763 L592.673358,198.499237 L588.226948,198.499237 L588.245322,191.500763 Z M582.880231,191.500763 L587.308268,191.500763 L587.308268,198.499237 L582.880231,198.499237 L582.880231,191.500763 Z M577.502892,191.500763 L581.930929,191.500763 L581.930929,198.499237 L577.502892,198.499237 L577.502892,191.500763 Z M572.131677,191.500763 L576.590337,191.500763 L576.590337,198.499237 L572.1623,198.499237 L572.131677,191.500763 Z M566.754338,191.500763 L571.182375,191.500763 L571.182375,198.499237 L566.754338,198.499237 L566.754338,191.500763 Z M561.376999,191.500763 L565.805036,191.500763 L565.805036,198.499237 L561.376999,198.499237 L561.376999,191.500763 Z M556.005784,191.500763 L560.433821,191.500763 L560.433821,198.499237 L556.005784,198.499237 L556.005784,191.500763 Z M550.63457,191.500763 L555.062606,191.500763 L555.062606,198.499237 L550.63457,198.499237 L550.63457,191.500763 Z M545.263355,191.500763 L549.691392,191.500763 L549.691392,198.499237 L545.263355,198.499237 L545.263355,191.500763 Z" id="Shape" fill="#81C784" fill-rule="nonzero" opacity="0.1"></path>
                    <path d="M545,214 L545,222 L599,222 L599,214 L545,214 Z M593.622661,214.500763 L598.026199,214.500763 L598.026199,221.499237 L593.598163,221.499237 L593.622661,214.500763 Z M588.245322,214.500763 L592.673358,214.500763 L592.673358,221.499237 L588.226948,221.499237 L588.245322,214.500763 Z M582.880231,214.500763 L587.308268,214.500763 L587.308268,221.499237 L582.880231,221.499237 L582.880231,214.500763 Z M577.502892,214.500763 L581.930929,214.500763 L581.930929,221.499237 L577.502892,221.499237 L577.502892,214.500763 Z M572.131677,214.500763 L576.590337,214.500763 L576.590337,221.499237 L572.1623,221.499237 L572.131677,214.500763 Z M566.754338,214.500763 L571.182375,214.500763 L571.182375,221.499237 L566.754338,221.499237 L566.754338,214.500763 Z M561.376999,214.500763 L565.805036,214.500763 L565.805036,221.499237 L561.376999,221.499237 L561.376999,214.500763 Z M556.005784,214.500763 L560.433821,214.500763 L560.433821,221.499237 L556.005784,221.499237 L556.005784,214.500763 Z M550.63457,214.500763 L555.062606,214.500763 L555.062606,221.499237 L550.63457,221.499237 L550.63457,214.500763 Z M545.263355,214.500763 L549.691392,214.500763 L549.691392,221.499237 L545.263355,221.499237 L545.263355,214.500763 Z" id="Shape" fill="#81C784" fill-rule="nonzero" opacity="0.1"></path>
                    <path d="M545,237 L545,245 L595.070655,245 C595.143134,244.835491 595.215613,244.66489 595.282051,244.500381 L592.950655,244.500381 L592.950655,237.505712 L597.293333,237.505712 L597.293333,239.242193 C597.547009,238.498858 597.788604,237.755522 598,237 L545,237 Z M587.647635,237.505712 L592.014473,237.505712 L592.014473,244.482102 L587.629516,244.482102 L587.647635,237.505712 Z M582.356695,237.505712 L586.723533,237.505712 L586.723533,244.482102 L582.356695,244.482102 L582.356695,237.505712 Z M577.053675,237.505712 L581.420513,237.505712 L581.420513,244.482102 L577.053675,244.482102 L577.053675,237.505712 Z M571.756695,237.505712 L576.153732,237.505712 L576.153732,244.482102 L571.786895,244.482102 L571.756695,237.505712 Z M566.453675,237.505712 L570.820513,237.505712 L570.820513,244.482102 L566.453675,244.482102 L566.453675,237.505712 Z M561.150655,237.505712 L565.517493,237.505712 L565.517493,244.482102 L561.150655,244.482102 L561.150655,237.505712 Z M555.853675,237.505712 L560.220513,237.505712 L560.220513,244.482102 L555.853675,244.482102 L555.853675,237.505712 Z M550.556695,237.505712 L554.923533,237.505712 L554.923533,244.482102 L550.556695,244.482102 L550.556695,237.505712 Z M545.259715,237.505712 L549.626553,237.505712 L549.626553,244.482102 L545.259715,244.482102 L545.259715,237.505712 Z" id="Shape" fill="#81C784" fill-rule="nonzero" opacity="0.1"></path>
                    <path d="M545,260 L545,268 L578.563725,268 C578.758616,267.835115 578.929144,267.658015 579.105764,267.499237 L577.321301,267.499237 L577.321301,260.519084 L581.724599,260.519084 L581.724599,264.885496 L582.668598,263.877863 L582.668598,260.519084 L585.585859,260.519084 C585.725936,260.348092 585.859923,260.177099 586,260.018321 L545,260 Z M571.980095,260.500763 L576.413844,260.500763 L576.413844,267.499237 L572.010547,267.499237 L571.980095,260.500763 Z M566.632799,260.500763 L571.036096,260.500763 L571.036096,267.499237 L566.632799,267.499237 L566.632799,260.500763 Z M561.285502,260.500763 L565.6888,260.500763 L565.6888,267.499237 L561.285502,267.499237 L561.285502,260.500763 Z M555.944296,260.500763 L560.347594,260.500763 L560.347594,267.499237 L555.944296,267.499237 L555.944296,260.500763 Z M550.60309,260.500763 L555.006387,260.500763 L555.006387,267.499237 L550.60309,267.499237 L550.60309,260.500763 Z M545.261884,260.500763 L549.665181,260.500763 L549.665181,267.499237 L545.261884,267.499237 L545.261884,260.500763 Z" id="Shape" fill="#81C784" fill-rule="nonzero" opacity="0.1"></path>
                    <path d="M545,283 L545,287 C545.092958,286.980097 545.183965,286.954809 545.272296,286.924338 L545.272296,283.393443 L549.85066,283.393443 L549.85066,285.542245 L550.825858,285.224464 L550.825858,283.413619 L555.404222,283.413619 L555.404222,283.615385 C555.94248,283.418663 556.474406,283.211854 557,283.005044 L545,283 Z" id="Path" fill="#81C784" opacity="0.1"></path>
                    <path d="M229,305 L229.542917,305 L229,305 Z M264.374091,232.991966 C264.47061,232.684651 264.561096,232.389388 264.663647,232.063996 C264.561096,232.377336 264.464577,232.684651 264.374091,232.991966 Z M501.58681,89 L501.58681,91.0728673 L526,91.0728673 L526,89 L501.58681,89 Z M229,305 L229.542917,305 L229,305 Z M264.374091,232.991966 C264.47061,232.684651 264.561096,232.389388 264.663647,232.063996 C264.561096,232.377336 264.464577,232.684651 264.374091,232.991966 Z M229,305 L229.542917,305 L229,305 Z M264.374091,232.991966 C264.47061,232.684651 264.561096,232.389388 264.663647,232.063996 C264.561096,232.377336 264.464577,232.684651 264.374091,232.991966 Z" id="Shape" fill="#81C784" fill-rule="nonzero" opacity="0.1"></path>
                    <ellipse id="Oval" fill="#81C784" opacity="0.1" cx="545" cy="495" rx="21" ry="2"></ellipse>
                    <polygon id="Path" fill="#D48A9B" points="403 323 392.846154 322.422141 392.158654 292.233577 392 285.043796 402.712073 283 402.782585 292.270073"></polygon>
                    <polygon id="Path" fill="#D48A9B" points="396.155096 318.722935 342.605133 351.751838 341.447296 361.802292 347.236481 362.089448 347.236481 354.910552 382.261052 335.383956 340 387.359161 340 395.399524 346.947022 395.399524 346.368104 386.497694 395.286718 331.363774 401.365363 331.938086 452.895141 389.943564 454.052978 399.712844 461 400 459.842163 389.943564 419.028408 339.404137 446.237578 358.069266 446.816496 366.10963 452.316222 366.396785 451.737304 356.633487 399.918066 317"></polygon>
                    <path d="M327.580769,260.457013 C332.665116,254.150234 336.927115,247.226417 340.26487,239.851092 C343.969452,231.678841 348.03176,222.243276 348.340981,219.450687 C348.947295,214.228183 363.765624,203.783175 380.063361,203.202897 C390.692056,202.822089 407.250508,194.553125 417.497225,188.841011 C427.135742,183.377547 437.854161,180.076985 448.904321,179.169708 C460.891161,178.269068 472.16255,180.614359 466.487445,194.48059 L390.273699,286.490953 C390.273699,286.490953 325.276773,297.909136 321.269034,279.551793 C321.044802,278.626299 320.734229,277.723742 320.341372,276.855917 C319.583479,275.121127 319.383395,270.593748 327.580769,260.457013 Z" id="Path" fill="#6B6B6B"></path>
                    <path d="M333.883004,262.056158 C338.977656,255.6928 343.26154,248.721281 346.636195,241.301837 C350.076478,233.67583 353.728007,225.126739 354.017715,222.538482 C354.572989,217.561065 368.708329,207.600197 384.231854,207.04514 C394.35353,206.683146 410.124513,198.803743 419.878019,193.355734 C429.066145,188.154141 439.277855,185.016468 449.802449,184.161087 C461.21574,183.304368 471.953046,185.542697 466.569304,198.761511 L406.388486,286.846713 C406.388486,286.846713 332.150791,297.374704 328.221625,279.956761 C327.988352,279.032047 327.679499,278.128046 327.298181,277.253872 C326.610124,275.528368 326.513555,271.299071 333.883004,262.056158 Z" id="Path" fill="#515151" opacity="0.2"></path>
                    <path d="M403,292 C399.53515,292 395.884469,292 392.161853,291.964544 L392,284.979645 L402.928065,283 L403,292 Z" id="Path" fill="#000000" opacity="0.1"></path>
                    <g id="Group" opacity="0.1" transform="translate(339.000000, 328.000000)" fill="#000000">
                        <polygon id="Path" points="106.852673 27.5294118 79.6019802 8.65210084 82.7244554 12.5546218 106.852673 29.2719328 107.432475 37.4036975 112.940594 37.6941176 112.837921 35.9455462 107.432475 35.6611765"></polygon>
                        <polygon id="Path" points="7.70049505 24.3347899 7.70049505 26.0773109 40.2116832 7.77478992 42.7785149 4.58621849"></polygon>
                        <polygon id="Path" points="0.452970297 65.2840336 0.452970297 67.0265546 7.41059406 67.0265546 7.29584158 65.2840336"></polygon>
                        <polygon id="Path" points="7.70049505 31.5952941 2.09574257 31.3169748 1.90247525 33.047395 7.70049505 33.3378151"></polygon>
                        <polygon id="Path" points="114.68 69.6463866 113.520396 59.7660504 61.9119802 1.10117647 55.8240594 0.520336134 6.83079208 56.2810084 6.93346535 57.9085714 55.8240594 2.26285714 61.9119802 2.84369748 113.520396 61.5085714 114.68 71.3889076 121.637624 71.6793277 121.438317 69.9247059"></polygon>
                    </g>
                    <path d="M397,235 C397,235 410.370604,244.884799 404.517991,244.999039 C398.665378,245.11328 397,235 397,235 Z" id="Path" fill="#000000" opacity="0.1"></path>
                    <path d="M340,289.891829 C340,289.891829 362.469857,288.153155 370.877933,271.925528 C370.877933,271.925528 387.984018,238.015341 401.906873,234.248213 C415.829728,230.481085 441.627782,222.077493 452.355326,209.037435 C463.082871,195.997377 467.582883,186 467.582883,186 C467.582883,186 470.349333,196.552787 461.633203,208.995176 C452.917073,221.437564 449.745924,240.599204 443.657317,260.913923 C437.568711,281.228643 435.249242,289.288123 424.231763,290.495536 C415.926372,291.37091 372.013506,290.930204 351.017478,290.495536 C344.149675,290.308387 340,289.891829 340,289.891829 Z" id="Path" fill="#2E2E2E"></path>
                    <path d="M340,289.891829 C340,289.891829 362.469857,288.153155 370.877933,271.925528 C370.877933,271.925528 387.984018,238.015341 401.906873,234.248213 C415.829728,230.481085 441.627782,222.077493 452.355326,209.037435 C463.082871,195.997377 467.582883,186 467.582883,186 C467.582883,186 470.349333,196.552787 461.633203,208.995176 C452.917073,221.437564 449.745924,240.599204 443.657317,260.913923 C437.568711,281.228643 435.249242,289.288123 424.231763,290.495536 C415.926372,291.37091 372.013506,290.930204 351.017478,290.495536 C344.149675,290.308387 340,289.891829 340,289.891829 Z" id="Path" fill="#F1F1F1" opacity="0.2"></path>
                    <path d="M346,288.959076 C346,288.959076 367.419287,287.285393 375.430437,271.670349 C375.430437,271.670349 391.741863,239.048525 405.005437,235.425211 C418.269011,231.801897 442.868664,223.709429 453.096434,211.165804 C463.324203,198.622178 467.606856,189 467.606856,189 C467.606856,189 470.227044,199.198069 461.938817,211.165804 C453.650589,223.133538 450.608761,241.55605 444.802182,261.076354 C438.995604,280.596659 436.791032,288.401181 426.286185,289.51697 C418.371409,290.356811 376.514653,289.930892 356.498824,289.51697 C349.957388,289.390994 346,288.959076 346,288.959076 Z" id="Path" fill="#585858"></path>
                    <path d="M328,281.086694 C328,281.086694 339.853659,285.816648 346.585366,283.222802 C353.317073,280.628957 370,273 370,273 C370,273 341.902439,274.85638 328,281.086694 Z" id="Path" fill="#000000" opacity="0.1"></path>
                    <path d="M407,492 C407,492 373.265991,490.195251 365.043779,485.382586 C356.821567,480.569921 345.182488,480.569921 345.12212,480.569921 L210.801843,451.39314 L154.960829,438.158311 L145,436.852876 L177.900922,399.338153 L178.903041,398.905013 L227.403226,378 C227.403226,378 249.135945,379.203166 253.428157,393.316306 C253.72185,394.310573 253.923916,395.329465 254.031843,396.360317 C254.482198,400.761745 253.258538,405.171323 250.602903,408.716834 C248.888433,411.050976 246.781567,414.365699 246.117512,417.283377 C245.743226,418.931715 245.827742,420.45372 246.721198,421.614776 C248.532018,423.406356 250.531761,424.997752 252.685622,426.361266 C264.511843,434.181847 294.406406,447.067757 346.631336,427.329815 C346.631336,427.329815 368.967742,405.372032 385.870968,414.69657 C402.774194,424.021108 407,492 407,492 Z" id="Path" fill="#E1DEE5"></path>
                    <path d="M246.025043,417.32043 C245.651071,418.970323 245.735516,420.493763 246.628223,421.655914 C248.437524,423.449184 250.43559,425.042082 252.587646,426.406882 L151,434 L178.842808,398.924731 L227.302323,378 C227.302323,378 249.016818,379.204301 253.30543,393.330753 C253.598878,394.325957 253.800774,395.34581 253.908611,396.377634 C254.358588,400.783214 253.135954,405.196951 250.482546,408.745806 C248.793641,411.082151 246.688541,414.4 246.025043,417.32043 Z" id="Path" fill="#000000" opacity="0.1"></path>
                    <polygon id="Path" fill="#A36468" points="146.775385 279 230 280.809339 230 380.437549 150.996923 434 132 416.509728 135.92 358.610895 132 304.632296"></polygon>
                    <path d="M100,261.631898 L197.110471,231.644606 C198.855646,231.109763 200.68489,230.904954 202.504828,231.040632 L434.492293,248.006252 C454.334499,249.370824 473.432035,256.120837 489.737736,267.532721 C504.751526,278.144539 519.620663,294.433709 526.503741,319.099993 C531.482616,337.301183 531.137422,356.552689 525.509251,374.562896 L505.016723,441 C505.016723,441 520.386119,296.650292 366.993524,289.402608 L100,261.631898 Z" id="Path" fill="#D9D6DF"></path>
                    <path d="M151,276.738093 L151,437 C151,437 124.178498,433.249099 119.409556,428.042535 C115.497201,423.772186 92.831058,411.734272 82.9954949,399.333952 C80.8388396,396.615908 79.2957679,393.897864 78.7064846,391.197941 C75.4137884,376.29098 62,341.065131 62,341.065131 L65.6450512,306.636575 L80.8327645,284.288215 L110.296928,271 L133.078498,271 L151,276.738093 Z" id="Path" fill="#B8797D"></path>
                    <path d="M109.631835,279 C109.631835,279 66.1984138,306.102273 75.7009879,349.712841 C76.4757201,353.26625 77.1475581,356.837727 77.5893975,360.451364 C79.3264923,374.556591 89.7490608,415.089545 152,433.784091 L152,438 L125.592528,430.670341 L107.664742,420.835227 L93.9798247,408.621136 L77.2504522,388.3125 L69.4849729,371.75 L66.6402532,349.935682 L65,325.031705 L69.0007653,303.669091 L78.4367608,289.768636 L89.9366912,280.873068 L109.631835,279 Z" id="Path" fill="#D9D6DF"></path>
                    <path d="M151,276.792159 L151,302.41973 C131.986281,304.484021 73.1166473,316.384054 83.5711556,384.384242 L82.9940618,400 C80.8375538,397.26785 79.2945874,394.535699 78.7053443,391.821763 C75.4128728,376.837436 62,341.428766 62,341.428766 L65.6448024,306.821528 L80.8314791,284.35718 L110.293632,271 L133.073647,271 L151,276.792159 Z" id="Path" fill="#000000" opacity="0.1"></path>
                    <path d="M250.520379,408.421687 C248.825772,410.759036 246.743314,414.078313 246.086952,417 C243.485371,413.987952 242.92448,410.524096 246.683645,407.783133 C251.39155,404.325301 252.960852,398.325301 253.312901,393 C253.603192,393.995633 253.802917,395.015925 253.909594,396.048193 C254.354731,400.455668 253.145247,404.871305 250.520379,408.421687 Z" id="Path" fill="#FFFFFF" opacity="0.1"></path>
                    <path d="M493,425.063467 L481.6,464.003096 L455.8,489.359133 L423.4,496 L373,486.944272 L373,306.735294 C373,306.735294 381.7,301 382.6,301 C383.5,301 407.8,304.924149 407.8,304.924149 L462.82,344.630495 L465.1,346.278638 L489.7,383.105263 L493,425.063467 Z" id="Path" fill="#B8797D"></path>
                    <polygon id="Path" fill="#A36468" points="373 298 373 486.1229 377 487 377 298"></polygon>
                    <path d="M465,357 C428.564356,327.29801 388.060066,322.93007 373,322.387843 L373,306.723507 C373,306.723507 381.805281,301 382.716172,301 C383.627063,301 408.221122,304.916084 408.221122,304.916084 L463.906931,344.540828 L465,357 Z" id="Path" fill="#000000" opacity="0.1"></path>
                    <path d="M365.462566,286.176283 L138.725797,261.438979 L113.24257,260.087477 C97.1509191,259.157012 81.5272151,265.688786 70.8851518,277.795767 C57.6126378,293.060494 47.5798239,319.987954 62.2338859,366.222579 C62.2338859,366.222579 77.5153758,426.153224 151.521707,439.028689 L366.560565,487.761178 C371.326604,488.841173 376.032313,490.174574 380.677693,491.688979 C400.200355,498.102578 466.345738,514.718806 497.505981,458.233284 C508.184322,438.865785 511.381791,416.282436 507.267312,394.543776 C499.768341,354.783085 471.455656,287.310579 365.462566,286.176283 Z M476.547475,455.650951 C447.468603,503.025905 387.549236,488.925642 369.534814,483.362765 C365.12472,481.999196 360.660329,480.810599 356.141641,479.845241 L157.500371,437.345346 C89.0624629,426.104956 74.9272356,373.776507 74.9272356,373.776507 C63.3741155,339.385621 68.4237037,317.194449 77.7627272,303.148487 C87.5421568,288.444875 104.567172,280.22123 122.20755,281.114186 L145.687834,282.320884 L348.491847,309.417282 C352.59426,309.96633 356.726839,310.328339 360.86545,310.467109 C451.052182,313.526088 479.111483,363.121366 486.242443,397.30108 C490.429318,417.277962 487.243914,438.238302 476.547475,455.650951 Z" id="Shape" fill="#E1DEE5" fill-rule="nonzero"></path>
                    <path d="M2.55243711,386.834694 C9.9876855,391.800967 21.2764582,389.438371 21.2764582,389.438371 C21.2764582,389.438371 38.3032375,381.392287 43.3345631,381.392287 C48.3658888,381.392287 60.6029426,376.419987 60.6029426,376.419987 L60.1861822,373.068959 L58.9419408,362.973684 C66.6912695,369.000714 75.3043192,366.921388 79.544404,366.481415 C84.0985692,366.011307 108.433757,351.576571 110.777279,350.6243 C111.41148,350.371165 112.154401,349.545462 112.909402,348.478678 C114.476973,346.086664 115.854284,343.575752 117.028686,340.968999 C118.550768,339.630998 119.662129,338.558187 119.583609,338.323133 C119.505089,338.088079 120.18761,336.328186 121.075491,334.345293 C124.530375,333.74259 127.508098,332.46486 128.456379,331.6934 C130.036194,330.432247 130.930815,328.504018 130.872382,326.486046 C130.872382,326.486046 154.615649,302.588874 151.492965,292.650302 C148.370282,282.71173 159.169814,282.470649 159.169814,282.470649 C159.169814,282.470649 175.713393,275.370808 178.014635,271.115725 C179.434037,268.493967 191.846251,262.738154 201.184101,258.700044 L202.331703,258.205828 C205.955707,266.131372 224.365647,260.013937 227.989652,256.680989 C231.825056,253.131069 243.089669,251.473635 243.089669,251.473635 C243.089669,251.473635 243.572869,205.065507 247.166673,199.171072 C248.875995,196.368503 249.286716,187.207418 249.244436,178.359739 C249.244436,178.046333 249.244436,177.757036 249.244436,177.419522 C254.281801,176.437116 266.265175,174.164926 271.828021,173.616467 C275.355385,173.266899 279.033749,171.07306 281.854432,168.939492 L282.186633,169.355357 C283.155953,169.752434 284.203307,169.923526 285.248916,169.8556 C286.174763,169.95911 287.11052,169.784951 287.936719,169.355357 C290.099042,168.149951 298.011451,165.805436 300.886494,164.624138 C303.761537,163.44284 300.409333,154.920621 298.253051,153.263187 C296.096768,151.605754 294.629047,149.478213 295.837048,148.531969 C297.04505,147.585725 292.962005,145.217103 290.564122,144.740967 C288.166239,144.264832 280.972591,140.955993 280.972591,140.955993 C280.972591,140.955993 278.333108,135.531666 274.020544,135.531666 C269.707979,135.531666 263.945812,131.270556 263.945812,131.270556 C263.710252,129.378069 259.150047,129.143015 259.150047,129.143015 C259.150047,129.143015 241.887707,115.88355 239.006624,117.54701 C236.125541,119.21047 228.219172,114.943333 228.219172,114.943333 C228.219172,114.943333 218.512881,116.028198 216.229758,114.244197 C216.20899,113.65838 215.996886,113.095394 215.625758,112.641008 C215.112357,111.037818 212.605754,108.843979 210.189751,107.017789 C210.374409,105.885976 210.467323,104.74115 210.467592,103.594436 C210.467592,103.10022 210.467592,102.606003 210.413232,102.117814 C210.413232,102.033435 210.413232,101.955084 210.413232,101.870706 L210.757512,98.5377582 C210.781261,97.4417436 211.067031,96.3672434 211.591033,95.4037028 C211.995714,94.8009999 212.593674,94.2887023 213.046675,93.6920264 C213.152325,93.5514818 213.24915,93.4045428 213.336595,93.2520532 L213.409075,93.1254856 C213.475451,93.0100818 213.535929,92.8913983 213.590275,92.7698909 L213.644635,92.6493503 C213.778095,92.321934 213.881206,91.9830033 213.952676,91.6368093 L213.952676,91.5584579 C213.982876,91.4017551 214.007036,91.2450524 214.025156,91.0823226 C214.022439,91.0603066 214.022439,91.0380412 214.025156,91.0160252 C214.1242,89.6391078 213.939188,88.2565508 213.481555,86.9538073 C212.762794,84.7177793 211.639353,82.5601026 211.518553,80.2276422 C211.458153,79.0704525 211.651433,77.8891547 211.397753,76.7560731 C210.793752,74.1704774 208.154269,72.5371523 205.587266,71.452287 C202.041782,69.9696377 200.25394,68.3483667 197.409097,66.1424739 C194.993094,64.2740947 190.99461,65.2143113 187.950446,65.4071763 C180.992359,65.8531765 174.124871,67.9445558 167.577503,70.1022324 C165.034661,70.9460165 162.443498,71.9103413 160.462375,73.6280447 C159.128631,74.7600624 158.212339,76.3044411 157.859132,78.0157223 C157.790528,78.4136482 157.764208,78.8176886 157.780612,79.2211282 C157.780612,79.2572904 157.780612,79.2934526 157.780612,79.3235877 C157.780612,79.4802905 157.780612,79.6309662 157.834972,79.781642 C157.831604,79.831811 157.831604,79.8821487 157.834972,79.9323177 C157.864948,80.1163247 157.909378,80.2976947 157.967853,80.4747504 C158.245693,81.3486697 158.759093,82.1382106 159.055054,83.0061028 C159.122073,83.2033784 159.176541,83.4046799 159.218134,83.6088058 C159.218134,83.6088058 159.218134,83.650995 159.218134,83.6690761 C159.260414,83.861941 159.290614,84.048779 159.314774,84.2717791 C159.580534,86.4234286 158.783253,88.6715107 158.432933,90.8653495 C158.384613,91.172728 158.348373,91.4680525 158.324213,91.8055661 C158.219477,93.0748988 158.331812,94.3527613 158.656413,95.5845137 C158.653795,95.5984554 158.653795,95.6127612 158.656413,95.6267029 C158.692653,95.7773787 158.747013,95.9280544 158.795333,96.0727031 C158.811848,96.1380646 158.832013,96.2024534 158.855734,96.2655681 C158.898014,96.3921357 158.952374,96.5187033 159.000694,96.6392439 L159.103374,96.8923791 C159.151694,97.0008657 159.206054,97.1093522 159.260414,97.2178387 C159.314774,97.3263253 159.351014,97.3986496 159.399334,97.483028 C159.448783,97.5821365 159.503212,97.6786918 159.562414,97.7723255 C159.616774,97.8687579 159.677174,97.9591634 159.737575,98.0495688 C159.797975,98.1399743 159.852335,98.2243527 159.918775,98.3087311 C159.985215,98.3931095 160.057695,98.495569 160.130175,98.5859745 L160.317415,98.8150016 L160.571095,99.0801909 L160.770416,99.2790829 L161.066376,99.5322181 C161.138856,99.5864614 161.199256,99.6467317 161.271736,99.6949479 C161.344216,99.7431642 161.519377,99.8697318 161.646217,99.9480832 L161.821377,100.068624 C162.014657,100.183137 162.220017,100.285597 162.425378,100.382029 C163.802499,100.984732 165.542021,101.23184 166.369502,102.443273 C166.566835,102.726086 166.704515,103.045964 166.774182,103.38349 C166.774182,103.461841 166.774182,103.54622 166.774182,103.624571 L166.774182,103.835517 C166.774182,104.534653 166.822503,105.227761 166.894983,105.908815 C166.889657,106.283609 166.911863,106.658288 166.961423,107.029843 C167.001681,107.309963 167.078855,107.583547 167.190943,107.843492 C168.157662,112.606195 170.712455,116.901774 174.438951,120.030146 C174.511431,120.397795 174.595991,120.825714 174.686591,121.307876 C172.576332,122.887938 170.219276,124.109752 167.710384,124.924094 C161.954257,126.605635 153.818368,134.362422 153.818368,134.362422 C153.818368,134.362422 149.771563,163.466949 148.799122,167.016869 C147.826681,170.56679 147.10792,184.296363 147.10792,184.296363 C147.10792,184.296363 146.147559,189.973825 144.691918,192.812556 C143.671156,194.81353 143.858397,203.414101 146.6972,208.639536 C146.234399,209.667005 145.641688,210.63113 144.933518,211.508402 C139.177391,218.138135 121.909012,217.897053 116.152885,217.897053 C110.855799,217.897053 109.218958,221.103433 108.995477,221.609704 C98.4556654,224.623218 64.3296268,234.314682 60.2828223,236.074575 C55.4870569,238.165954 52.8475739,258.832639 52.8475739,258.832639 C52.8475739,258.832639 42.8272026,293.138491 43.3043631,297.634656 C43.7815236,302.13082 39.9461193,314.654987 39.9461193,314.654987 C39.9461193,314.654987 39.9461193,328.81248 38.3213575,329.770778 C38.3073133,329.783792 38.2909147,329.794019 38.2730374,329.800913 C36.5939155,330.512102 36.8294758,337.376889 36.8294758,337.376889 C36.8294758,337.376889 38.0676772,337.732484 39.9944394,338.220673 C39.4810388,341.686215 37.5784366,346.537974 36.110715,349.985435 C35.3617541,349.039191 34.6309133,348.647434 34.1960328,349.744354 C32.9880315,352.757869 15.0129712,374.057391 10.452766,374.057391 C8.28440358,374.057391 4.69663953,375.829338 2.33499686,378.222069 C-0.250126055,380.855881 -1.3494073,384.237045 2.55243711,386.834694 Z M85.0287302,263.539749 C105.413753,265.432236 127.236298,262.099289 127.236298,262.099289 C127.236298,262.099289 125.557176,268.035913 124.119654,270.404536 C122.682133,272.773158 118.599088,286.261651 118.599088,289.088328 C118.599088,291.915004 112.124201,316.300366 110.209519,317.481664 C109.406198,317.981908 108.687437,319.223476 108.119676,320.495179 C107.61547,321.6706 107.191698,322.878775 106.851275,324.111397 C106.879462,324.726154 106.933822,325.310776 107.014355,325.865262 C105.582873,327.173128 104.066832,328.547291 102.71991,329.764751 C102.71991,329.764751 94.1431005,334.526104 91.2438972,337.129781 C88.3446939,339.733458 74.9358788,342.927783 74.9358788,342.927783 C71.6112445,344.354368 68.3830966,345.995173 65.2718679,347.839813 C61.1103032,350.34103 56.9487385,353.523301 55.8615373,356.663384 C56.3326578,351.371652 57.0997387,345.001082 57.6131393,340.950918 L58.3741801,340.920782 C65.0967077,340.504917 64.0940666,334.104212 63.7377062,332.519103 C63.6893861,332.290076 63.6531461,332.163508 63.6531461,332.163508 C68.4489115,326.956155 79.2363637,288.166192 77.798842,283.887001 C76.3613204,279.60781 79.0068434,275.840916 79.568564,275.840916 C80.1302847,275.840916 80.9154856,271.109698 79.7195642,268.506021 C78.5236429,265.902344 85.0287302,263.539749 85.0287302,263.539749 Z M249.860516,159.139541 L248.586075,159.452947 L248.586075,159.181731 C248.586075,159.181731 249.051155,159.181731 249.860516,159.139541 Z M180.182998,123.429391 C179.989717,123.670472 179.796437,123.899499 179.578997,124.122499 L179.331357,124.375634 C179.331357,123.935661 179.331357,123.489661 179.331357,123.061742 C179.621277,123.176255 179.899117,123.314877 180.182998,123.429391 Z M156.16189,169.343303 L156.246451,170.675276 C156.246451,170.675276 156.11961,171.488925 155.87801,172.881169 L156.16189,169.343303 Z M266.361815,156.119999 L262.17609,156.837216 C262.780091,156.614216 263.353891,156.373135 263.921652,156.101918 C264.342296,155.905263 264.793938,155.782909 265.256494,155.740297 C265.786064,155.796472 266.308326,155.907567 266.814815,156.071783 C266.662778,156.075924 266.511307,156.092046 266.361815,156.119999 Z" id="Shape" fill="url(#linearGradient-1)" fill-rule="nonzero"></path>
                    <path d="M125,328.183707 C125,328.183707 120.254392,338.140098 120.497604,338.845669 C120.740817,339.55124 110.324207,348 110.324207,348 L99,339.780399 L100.186402,334.135831 C100.186402,334.135831 112.8987,322.490894 113.830025,321.146088 C114.761351,319.801282 125,328.183707 125,328.183707 Z" id="Path" fill="#EFB7B9"></path>
                    <path d="M59.5642559,361.378795 C67.5349539,369.100404 76.9072917,366.78272 81.364867,366.296367 C85.8224423,365.810014 109.602193,351.555659 111.888129,350.618978 C112.489691,350.366795 113.241644,349.550202 113.975549,348.493434 C115.50924,346.126298 116.854837,343.642907 118,341.066039 C117.843594,341.108069 110.047349,343.335688 108.080241,341.066039 C108.080241,341.066039 104.795712,337.049121 104.091884,337.049121 C103.388056,337.049121 104.037743,330 104.037743,330 C104.037743,330 95.6519673,334.70742 92.8426722,337.283291 C90.0333771,339.859162 76.9012761,343.011452 76.9012761,343.011452 C73.6536102,344.422034 70.5026168,346.044727 67.4687821,347.868981 C61.260661,351.651729 55.004415,356.989606 59.5642559,361.378795 Z" id="Path" fill="#67647E"></path>
                    <path d="M58.5651002,361.417292 C66.5392563,369.086019 75.9156603,366.784209 80.3751695,366.301186 C84.8346787,365.818164 108.624746,351.66143 110.911674,350.731164 C111.513497,350.480708 112.265776,349.669707 113,348.620177 C110.225595,346.980286 92.0986836,358.399892 87.0253148,360.492989 C81.951946,362.586087 69.1150592,361.417292 61.8269814,358.399892 C58.2160428,356.891192 61.8751273,352.257754 66.4610193,348 C60.2622413,351.756842 54.003281,357.058163 58.5651002,361.417292 Z" id="Path" fill="#000000" opacity="0.1"></path>
                    <path d="M60,336.473595 C60,336.473595 56.7244034,362.143457 57.556582,365.505353 C58.3887606,368.867249 37,353.991167 37,353.991167 C37,353.991167 44.4837054,337.902093 42.3117783,334.207702 C40.1398512,330.513311 60,336.473595 60,336.473595 Z" id="Path" fill="#EFB7B9"></path>
                    <path d="M39.0115272,337.436065 C39.0115272,337.436065 52.6154823,341.432289 60.115716,340.961435 C66.6889545,340.550947 65.7077843,334.188378 65.3646756,332.612827 C65.3165201,332.389473 65.2804034,332.262705 65.2804034,332.262705 C69.9695543,327.083308 80.5276681,288.509479 79.1251364,284.277828 C77.7226048,280.046176 80.2688318,276.309525 80.8707767,276.309525 C81.4727216,276.309525 82.189036,271.600983 81.0152435,269.017321 C79.8414509,266.433659 86.1799308,264.079388 86.1799308,264.079388 C106.116346,265.956768 127.461313,262.642679 127.461313,262.642679 C127.461313,262.642679 125.818004,268.546467 124.409452,270.900738 C123.000901,273.255009 118.991948,286.656245 118.991948,289.481371 C118.991948,292.306496 112.659488,316.531343 110.78142,317.708479 C109.998891,318.20348 109.294616,319.434945 108.740826,320.726776 C108.246192,321.904545 107.831903,323.114649 107.50082,324.348731 C108.205095,340.110275 126.028684,334.00728 128.611028,331.876363 C128.978543,331.569806 129.313406,331.225897 129.610257,330.850142 C130.515991,329.659302 130.989517,328.194218 130.952594,326.696966 C130.952594,326.696966 154.175629,302.942973 151.123768,293.06107 C148.071907,283.179168 158.630021,282.949777 158.630021,282.949777 C158.630021,282.949777 174.81632,275.893 177.067594,271.655312 C178.458086,269.05354 190.593296,263.336887 199.73082,259.316516 C205.455316,256.799257 210,254.958096 210,254.958096 L206.195708,241.279177 L203.185984,230.491785 L197.53974,228.366904 L179.481393,221.557628 L147.084717,217 L144.117129,217.386342 L112.641429,221.473115 C112.641429,221.473115 66.6889545,234.657034 61.9937841,236.721549 C57.2986138,238.786064 54.7222895,259.340662 54.7222895,259.340662 C54.7222895,259.340662 44.8744707,293.447412 45.3560266,297.938637 C45.8375826,302.429862 42.0694074,314.841097 42.0694074,314.841097 C42.0694074,314.841097 42.0694074,328.912395 40.4742534,329.866177 C40.4585432,329.870874 40.441808,329.870874 40.4260978,329.866177 C38.7767687,330.638861 39.0115272,337.436065 39.0115272,337.436065 Z" id="Path" fill="#444053"></path>
                    <path d="M87,264.429405 C106.807466,266.289679 128.014373,263.005786 128.014373,263.005786 C129.413813,258.597354 149,246.478652 149,246.478652 C132.930356,242.518839 87,264.429405 87,264.429405 Z" id="Path" fill="#000000" opacity="0.1"></path>
                    <path d="M108,324.83231 C108.70079,341.621169 126.436156,335.120389 129.005717,332.850581 C129.371414,332.524044 129.704619,332.15772 130,331.757473 C123.800708,334.207322 112.809692,336.104186 109.233869,321 C108.742702,322.246168 108.330475,323.526517 108,324.83231 Z" id="Path" fill="#444053"></path>
                    <path d="M39.0113858,337.475079 C39.0113858,337.475079 52.2961294,341.427557 59.620373,340.961857 C66.039373,340.555862 65.0812256,334.262944 64.7461679,332.704641 C58.0215012,332.489703 46.4414371,331.850858 40.4280332,330 C40.4126917,330.004646 40.3963491,330.004646 40.3810076,330 C38.7821358,330.752284 39.0113858,337.475079 39.0113858,337.475079 Z" id="Path" fill="#444053"></path>
                    <path d="M108,324.83231 C108.70079,341.621169 126.436156,335.120389 129.005717,332.850581 C129.371414,332.524044 129.704619,332.15772 130,331.757473 C123.800708,334.207322 112.809692,336.104186 109.233869,321 C108.742702,322.246168 108.330475,323.526517 108,324.83231 Z" id="Path" fill="#000000" opacity="0.1"></path>
                    <path d="M39.0113858,337.475079 C39.0113858,337.475079 52.2961294,341.427557 59.620373,340.961857 C66.039373,340.555862 65.0812256,334.262944 64.7461679,332.704641 C58.0215012,332.489703 46.4414371,331.850858 40.4280332,330 C40.4126917,330.004646 40.3963491,330.004646 40.3810076,330 C38.7821358,330.752284 39.0113858,337.475079 39.0113858,337.475079 Z" id="Path" fill="#000000" opacity="0.1"></path>
                    <path d="M4.51934693,385.830237 C11.8850655,390.80773 23.0555923,388.434598 23.0555923,388.434598 C23.0555923,388.434598 39.9211367,380.378117 44.9149475,380.378117 C49.9087583,380.378117 62,375.394539 62,375.394539 L61.5914709,372.041729 L59.6280923,355.953108 C59.6280923,355.953108 41.1223341,355.478482 40.3784453,353.817289 C40.3784453,353.817289 37.0553356,345.65128 35.866333,348.669417 C34.6773304,351.687555 16.860584,373.009237 12.3423742,373.009237 C10.1899746,373.009237 6.63516178,374.786044 4.29983876,377.183516 C1.75720247,379.842641 0.665759069,383.225876 4.51934693,385.830237 Z" id="Path" fill="#67647E"></path>
                    <path d="M68,247 C68,247 83.5507299,256.677863 79.247113,258.782799 C74.9434961,260.887734 68,247 68,247 Z" id="Path" fill="#000000" opacity="0.1"></path>
                    <path d="M62,266 C62,266 74.6901818,278.657761 69.9328176,278.993753 C65.1754534,279.329746 62,266 62,266 Z" id="Path" fill="#000000" opacity="0.1"></path>
                    <path d="M49,306 C49,306 54.6470573,318.618743 52.5217659,320.805668 C50.3964745,322.992594 49,306 49,306 Z" id="Path" fill="#000000" opacity="0.1"></path>
                    <path d="M121.161535,317.671633 C118.766774,319.854623 143.88106,310.454859 138.145915,310.017138 C132.41077,309.579418 121.161535,317.671633 121.161535,317.671633 Z" id="Path" fill="#000000" opacity="0.1"></path>
                    <path d="M171,143 L171.800834,142.885151 C174.759639,142.437842 185.500591,140.769504 195.135048,138.702214 C197.48253,138.194459 199.756653,137.66857 201.859606,137.124546 C209.23828,135.214419 214.189999,133.153175 211.029457,131.460657 C206.848005,129.218071 204.647241,125.14394 203.485726,121.63801 C203.375688,121.293462 203.271763,120.961003 203.173951,120.628544 C202.660948,118.853662 202.339233,117.030108 202.214174,115.188309 C202.214174,115.188309 175.315943,105.764613 180.536645,115.188309 C183.110317,119.812509 181.380272,123.584405 178.953318,126.225942 C177.284676,127.972254 175.321611,129.418333 173.151858,130.499549 L171,143 Z" id="Path" fill="#EFB7B9"></path>
                    <path d="M199.248731,135 C199.248731,135 189.707995,141.830796 179.961301,136.178766 C170.214606,130.526735 157.469395,186.116118 157.469395,186.116118 L144.25169,218.619827 C144.25169,218.619827 135.692287,225.686377 146.347623,228.751168 C157.002959,231.815959 180.639753,225.686377 186.642845,234.638951 C192.645936,243.591526 204.010012,245 205.173074,245 C206.336135,245 210.830881,211.31148 210.830881,211.31148 L212,162.552893 L199.248731,135 Z" id="Path" fill="#000000" opacity="0.1"></path>
                    <path d="M147.328243,226.725415 C157.983775,229.783321 181.627061,223.661466 187.630263,232.611581 C190.159575,236.258258 193.691657,239.09776 197.801177,240.788155 C200.454137,241.976444 203.284145,242.723599 206.179006,243 C206.330449,243 206.554585,242.395671 206.815067,241.313922 C208.474882,234.497088 211.836918,209.320734 211.836918,209.320734 L213,160.575541 L201.787158,136.311724 L200.254554,133 C198.752153,133.999956 197.122271,134.794663 195.408377,135.362927 C191.719225,136.607845 186.382373,137.308867 180.978885,134.154269 C178.119641,132.498407 174.999914,136.112295 172.025573,142.046808 C164.853231,156.33315 158.486566,184.077904 158.486566,184.077904 L145.256503,216.614987 C144.941995,216.884295 144.642688,217.170784 144.35996,217.473135 C142.482066,219.431161 138.96253,224.320185 147.328243,226.725415 Z" id="Path" fill="#F3F5F9"></path>
                    <path d="M198.442396,227.12382 C197.932023,231.220513 197.828803,235.359 198.134299,239.4767 C198.507851,245.335272 199.232034,251.16531 200.302831,256.934474 C200.369388,257.296815 200.464493,257.653138 200.587228,258 C206.221856,255.489693 210.695194,253.653616 210.695194,253.653616 L206.950625,240.012473 C208.574062,233.222001 211.862409,208.143006 211.862409,208.143006 L213,159.586314 L202.032916,135.428367 C209.184332,133.526072 213.983542,131.473278 210.920342,129.7877 C206.476629,127.337592 204.337722,122.690212 203.306781,119 C201.42828,121.660619 199.228758,124.071348 196.75971,126.175747 L196.617512,126.296146 L195.788018,134.483239 L195.533246,136.999567 L195,142.218839 C195,142.218839 197.541804,203.911 199.384463,207.432655 C201.227123,210.954309 200.308756,217.750801 198.697169,225.727198 C198.596445,226.178692 198.537196,226.642226 198.442396,227.12382 Z" id="Path" fill="#000000" opacity="0.1"></path>
                    <path d="M199.74193,226.466291 C198.108214,234.435627 199.507684,247.55947 201.381653,257.633914 C203.255621,267.708358 223.148516,261.152451 226.896453,257.633914 C230.644389,254.115377 241.635935,252.479407 241.635935,252.479407 C241.635935,252.479407 242.104427,206.545958 245.618117,200.687744 C247.281865,197.909002 247.684288,188.838995 247.642243,180.075732 C247.612212,172.208644 247.221802,164.588154 247.07765,162.031952 C247.041612,161.430493 247.023594,161.09969 247.023594,161.09969 C247.023594,161.09969 262.231568,135.321143 261.997321,133.43256 C261.763075,131.543978 257.318407,131.327453 257.318407,131.327453 C257.318407,131.327453 240.500742,118.20361 237.659758,119.839579 C234.818774,121.475549 227.124692,117.265333 227.124692,117.265333 C227.124692,117.265333 217.340415,118.378033 215.316289,116.483436 C215.06659,116.270311 214.932833,115.951084 214.955911,115.623349 C215.18415,112.616053 204.985438,106.216525 204.667104,106 C213.268138,113.746796 199.363533,125.685764 197.783874,126.996946 L197.639722,127.117237 L196,143.025837 C196,143.025837 198.576706,204.66339 200.444669,208.181927 C202.312631,211.700464 201.381653,218.496955 199.74193,226.466291 Z" id="Path" fill="#67647E"></path>
                    <circle id="Oval" fill="#444053" cx="199.5" cy="158.5" r="1.5"></circle>
                    <path d="M198,127.094982 L204.895512,134 L215,116.511307 C214.757883,116.297616 214.628188,115.97754 214.650565,115.648934 C214.871874,112.633642 204.977047,106.217101 204.674203,106 C213.014046,113.809606 199.554985,125.780314 198,127.094982 Z" id="Path" fill="#000000" opacity="0.1"></path>
                    <circle id="Oval" fill="#000000" opacity="0.1" cx="202.5" cy="195.5" r="1.5"></circle>
                    <circle id="Oval" fill="#444053" cx="202.5" cy="195.5" r="1.5"></circle>
                    <path d="M198,126.094982 L204.895512,133 L215,115.511307 C214.757883,115.297616 214.628188,114.97754 214.650565,114.648934 C214.871874,111.633642 204.982871,105.217101 204.674203,105 C213.014046,112.809606 199.531689,124.774284 198,126.094982 Z" id="Path" fill="#67647E"></path>
                    <path d="M191.964716,157.407581 L204.937554,157.407356 C205.876439,157.407343 206.637565,158.168448 206.637578,159.107332 C206.637578,159.107348 206.637578,159.107363 206.637578,159.107378 L206.637077,190.281487 C206.637064,191.220354 205.875966,191.981452 204.9371,191.981465 L191.964261,191.981736 C191.025377,191.981749 190.264251,191.220644 190.264238,190.281759 C190.264238,190.281744 190.264238,190.281729 190.264238,190.281714 L190.264739,159.107604 C190.264751,158.168738 191.025849,157.40764 191.964716,157.407627 Z" id="Rectangle" fill="#D1D9EC" transform="translate(198.450908, 174.694546) rotate(-178.690000) translate(-198.450908, -174.694546) "></path>
                    <path d="M192.048539,158.172012 L205.021378,158.171787 C205.960262,158.171774 206.721388,158.932879 206.721401,159.871764 C206.721401,159.871779 206.721401,159.871794 206.721401,159.871809 L206.7209,191.045919 C206.720888,191.984785 205.95979,192.745883 205.020924,192.745896 L192.048085,192.746167 C191.1092,192.74618 190.348074,191.985075 190.348061,191.046191 C190.348061,191.046175 190.348061,191.04616 190.348061,191.046145 L190.348562,159.872036 C190.348575,158.933169 191.109673,158.172071 192.048539,158.172058 Z" id="Rectangle" fill="#DFE6F5" transform="translate(198.534731, 175.458977) rotate(-178.690000) translate(-198.534731, -175.458977) "></path>
                    <circle id="Oval" fill="#FFFFFF" cx="198.5" cy="168.5" r="2.5"></circle>
                    <path d="M111,223.41908 C116.871774,226.009993 155.400019,219.191484 161.036681,217.536682 C166.673344,215.88188 174.902268,203.180974 170.905362,193.982932 C166.908456,184.784891 172.310006,175.864663 172.310006,175.864663 C172.310006,175.864663 180.749928,157.746394 182.648911,154.213332 C184.547893,150.680269 188.448343,140.40721 188.990909,138.685975 C189.035404,138.295096 188.915246,137.903328 188.659341,137.604918 C187.128098,135.291819 181.220152,131.172933 181.220152,131.172933 C179.562311,131.776875 179.357341,127.01177 179.411598,123.514944 C179.447769,121.558171 179.562311,120 179.562311,120 C179.562311,120 178.784632,120.791164 177.512615,121.872221 C177.048419,122.264784 176.51791,122.699622 175.927116,123.146539 C173.724252,124.914504 171.231587,126.285702 168.560269,127.198992 C162.923607,128.871912 154.935823,136.584256 154.935823,136.584256 L157.286945,172.724163 C157.286945,172.724163 151.86128,206.714036 146.242704,213.303047 C140.624127,219.892057 123.690026,219.65652 118.053364,219.65652 C112.416701,219.65652 111,223.41908 111,223.41908 Z" id="Path" fill="#000000" opacity="0.1"></path>
                    <path d="M110,221.421043 C115.871794,224.006267 154.400165,217.192873 160.036846,215.531806 C165.673527,213.870739 173.902478,201.174148 169.905559,191.974858 C165.90864,182.775567 171.310208,173.854128 171.310208,173.854128 C171.310208,173.854128 179.750158,155.733399 181.649147,152.199857 C183.548136,148.666314 187.448598,138.391861 187.991166,136.670392 C188.03492,136.279529 187.91485,135.887998 187.659597,135.589188 C186.116292,133.281815 180.238469,129.17445 180.238469,129.17445 C178.580622,129.778474 178.375652,125.018763 178.429909,121.521462 C178.46608,119.558383 178.580622,118 178.580622,118 C178.580622,118 177.802941,118.791272 176.53092,119.878516 C176.066723,120.265091 175.536212,120.699989 174.945415,121.146967 C172.731619,122.918837 170.226421,124.290378 167.542373,125.19997 C161.905692,126.873117 153.917883,134.586508 153.917883,134.586508 L156.269012,170.731323 C156.269012,170.731323 150.843329,204.725811 145.224734,211.315716 C139.606139,217.905621 122.678011,217.670052 117.035301,217.670052 C111.392592,217.670052 110,221.421043 110,221.421043 Z" id="Path" fill="#67647E"></path>
                    <path d="M174,120 C174,120 174.234708,121.228015 174.634345,123.120956 C175.96647,129.530598 179.138197,143.523984 181.428183,142.984855 C183.071137,142.595485 185.8686,139.851918 188,137.479752 C186.395106,135.167489 180.19121,131.082091 180.19121,131.082091 C178.44676,131.681123 178.231083,126.960751 178.288174,123.492356 L176.289986,121.862989 L174,120 Z" id="Path" fill="#000000" opacity="0.1"></path>
                    <path d="M174,119 C174,119 174.234708,120.228015 174.634345,122.120956 C175.96647,128.530598 179.138197,142.523984 181.428183,141.984855 C183.071137,141.595485 185.8686,138.851918 188,136.479752 C186.363389,134.173479 180.178523,130.100062 180.178523,130.100062 C178.434073,130.699094 178.218396,125.978722 178.275487,122.510327 L176.2773,120.88096 L174,119 Z" id="Path" fill="#67647E"></path>
                    <path d="M158.427506,188.17249 C158.427506,188.17249 170.29854,185.831858 173.618044,180.675248 C176.937548,175.518638 199.54672,171.047972 196.76321,176.463315 C193.979699,181.878658 173.618044,199.502591 173.618044,199.502591 L164.780245,212 L152.976211,209.039612 L148,199.478523 L158.427506,188.17249 Z" id="Path" fill="#EFB7B9"></path>
                    <path d="M188,202 C188,202 175.958257,206.182395 174.145933,211.774854 C172.33361,217.367313 188,202 188,202 Z" id="Path" fill="#000000" opacity="0.1"></path>
                    <path d="M193.982317,209 C193.982317,209 195.078969,214.382165 180,213.978364 L193.982317,209 Z" id="Path" fill="#000000" opacity="0.1"></path>
                    <path d="M255.627398,132.465842 L260.790738,132 C260.790738,132 266.417454,136.180637 270.635987,136.180637 C274.85452,136.180637 277.43619,141.555742 277.43619,141.555742 C277.43619,141.555742 284.471089,144.816639 286.818062,145.282481 C289.165035,145.748324 293.14887,148.071563 291.975384,149.003248 C290.801897,149.934933 292.210081,152.031224 294.322356,153.6557 C296.434632,155.280176 299.738447,163.665339 296.898008,164.829946 C294.05757,165.994552 286.348667,168.317791 284.260464,169.482397 C282.17226,170.647003 279.572536,169.482397 279.572536,169.482397 C279.572536,169.482397 267.151635,153.422779 260.814809,156.450754 C254.477983,159.47873 245.800203,159.460813 245.800203,159.460813 L239,145.270536 L255.627398,132.465842 Z" id="Path" fill="#000000" opacity="0.1"></path>
                    <path d="M147.07771,210.730486 C148.178411,212.382721 149.602144,213.540492 151.426677,213.775664 C155.989204,214.313323 160.612864,213.881963 165,212.509352 C165,212.509352 141.520364,204.989872 164.126617,186.706742 L158.084724,186.706742 L156.050819,185.934895 L156.972058,181.06864 L158.300078,137.175861 L153.406743,136 C153.406743,136 149.464557,164.902059 148.525371,168.423612 C147.586186,171.945165 146.880301,185.579122 146.880301,185.579122 C146.880301,185.579122 145.947098,191.217224 144.547293,194.0212 C143.488466,196.15584 143.781587,205.713479 147.07771,210.730486 Z" id="Path" fill="#67647E"></path>
                    <path d="M149,210.739471 C150.099466,212.387166 151.535381,213.541755 153.367824,213.776281 C157.950134,214.312462 162.593842,213.882287 167,212.513449 C167,212.513449 143.418558,205.014635 166.12283,186.769726 L160.060748,186.769726 L158.036048,186 C154.653538,191.923281 149.426569,202.440864 149,210.739471 Z" id="Path" fill="#000000" opacity="0.1"></path>
                    <path d="M148,210.73807 C149.105474,212.386473 150.535381,213.541558 152.367824,213.776185 C156.950134,214.312596 161.593842,213.882236 166,212.51281 C166,212.51281 142.418558,205.010774 165.12283,186.770057 L159.05474,186.770057 L157.012016,186 C153.695594,191.913795 148.444593,202.435897 148,210.73807 Z" id="Path"></path>
                    <path d="M148,210.73807 C149.105474,212.386473 150.535381,213.541558 152.367824,213.776185 C156.950134,214.312596 161.593842,213.882236 166,212.51281 C166,212.51281 142.418558,205.010774 165.12283,186.770057 L159.05474,186.770057 L157.012016,186 C153.695594,191.913795 148.444593,202.435897 148,210.73807 Z" id="Path" fill="#67647E"></path>
                    <path d="M179,126.101598 C187.159599,129.808373 196.765304,127.982083 203,121.538583 C202.89235,121.197255 202.79068,120.867903 202.694991,120.538552 C202.193121,118.780258 201.878388,116.973748 201.756043,115.149164 C201.756043,115.149164 175.441565,105.813545 180.548966,115.149164 C183.066783,119.748108 181.374284,123.484751 179,126.101598 Z" id="Path" fill="#000000" opacity="0.1"></path>
                    <path d="M167,103.972703 L167,104.180253 C167,104.8622 167.047377,105.538217 167.118443,106.202374 C167.189509,106.866532 167.284264,107.471389 167.402707,108.094037 C169.264512,117.408298 177.129831,124.317161 186.595063,124.952524 C196.060295,125.587887 204.776182,119.792052 207.862912,110.809966 C208.005044,110.400798 208.129409,109.991629 208.24193,109.576531 C208.748318,107.751877 209.003356,105.866498 208.999967,103.972703 C208.999967,103.492375 208.999967,103.006117 208.946667,102.531719 C208.142893,91.2491446 198.569573,82.6247492 187.279878,83.0125815 C175.990183,83.4004138 167.02966,92.6614981 167,103.972703 Z" id="Path" fill="#EFB7B9"></path>
                    <path d="M167,105.273651 C167.114934,105.944266 167.15468,106.625731 167.118493,107.305259 C167.111468,107.673617 167.131269,108.041999 167.17774,108.40745 C167.217193,108.682439 167.292905,108.950916 167.402878,109.205795 C168.250106,111.207613 171.022852,112.506412 172.853576,111.213571 C173.558473,110.632764 174.118465,109.894175 174.488785,109.05685 C176.432078,105.428553 179.127804,101.258098 183.375793,101.186604 C185.188743,101.150858 186.889124,101.919413 188.642827,102.378163 C190.39653,102.836913 192.470165,102.878618 193.773593,101.681101 C194.780787,100.757643 195.254761,99.1847856 196.599661,98.8630648 C197.944562,98.5413439 199.188743,99.780565 199.804909,100.995955 C200.421075,102.211345 200.912823,103.641215 202.174778,104.272741 C202.731697,104.5468 203.359712,104.630209 203.952179,104.928099 C206.46424,106.310307 205.308929,111.153993 207.915785,111.940422 C207.997302,111.965892 208.080437,111.985796 208.164621,112 C208.206094,111.571039 208.253491,111.130162 208.294964,110.701201 C208.531951,108.341915 208.766963,105.982628 209,103.623342 C208.195885,92.2878411 198.618506,83.6229889 187.324024,84.0126405 C176.029543,84.4022922 167.06522,93.7068199 167.035548,105.071086 L167,105.273651 Z" id="Path" fill="#000000" opacity="0.1"></path>
                    <path d="M204.7152,73.3983378 C207.221914,74.4685906 209.83082,76.113273 210.389871,78.6830891 C210.636335,79.8138083 210.449984,80.9868538 210.510097,82.1357127 C210.630324,84.4576172 211.712358,86.6102162 212.427704,88.8353747 C213.143049,91.0605332 213.383501,93.6726757 211.976856,95.5471299 C211.538031,96.1517925 210.954934,96.629476 210.558188,97.2462318 C210.040746,98.2182667 209.760526,99.3001401 209.740651,100.402571 L208.580469,112 C205.610884,111.437664 206.933371,106.255705 204.30042,104.816608 C203.753391,104.514277 203.098159,104.429624 202.527085,104.145432 C201.2587,103.54077 200.765773,102.059346 200.122564,100.825835 C199.479354,99.5923229 198.259059,98.328578 196.870448,98.6611424 C195.481837,98.9937068 195.024978,100.590016 194.009067,101.521197 C192.680569,102.730522 190.570601,102.682149 188.797266,102.228652 C187.023931,101.775155 185.292676,101.019327 183.459228,101.019327 C179.143111,101.091886 176.401957,105.324525 174.442271,109.00692 C174.065036,109.859193 173.494795,110.610867 172.77714,111.201845 C170.685206,112.677222 167.366966,110.814861 167.024322,108.347838 C166.819938,106.96316 167.252751,105.421271 166.459259,104.248225 C165.665767,103.07518 163.946534,102.827268 162.606013,102.198419 C159.17957,100.614203 158.12158,96.3150514 158.686643,92.7112621 C159.101423,90.1112128 160.129356,87.438604 159.287773,84.9353007 C158.993219,84.0706332 158.494281,83.2845717 158.223772,82.4199042 C157.472359,80.0012537 158.698665,77.3165516 160.628294,75.5932631 C162.557923,73.8699746 165.088682,72.9206543 167.577362,72.0862199 C173.967378,69.9275743 180.675994,67.8535814 187.474779,67.4061311 C190.450375,67.2126391 194.351711,66.275412 196.714154,68.1438195 C199.521433,70.3085117 201.252689,71.9229609 204.7152,73.3983378 Z" id="Path" fill="#585268"></path>
                    <circle id="Oval" fill="#000000" opacity="0.1" cx="198.5" cy="139.5" r="1.5"></circle>
                    <circle id="Oval" fill="#444053" cx="198.5" cy="139.5" r="1.5"></circle>
                    <circle id="Oval" fill="#000000" opacity="0.1" cx="206.5" cy="214.5" r="1.5"></circle>
                    <circle id="Oval" fill="#444053" cx="206.5" cy="213.5" r="1.5"></circle>
                    <circle id="Oval" fill="#000000" opacity="0.1" cx="202.5" cy="233.5" r="1.5"></circle>
                    <circle id="Oval" fill="#444053" cx="202.5" cy="233.5" r="1.5"></circle>
                    <path d="M161.5,158 C161.5,158 158.125,175.650548 161.5,178.725747 C164.875,181.800946 161.5,158 161.5,158 Z" id="Path" fill="#000000" opacity="0.1"></path>
                    <path d="M238.803959,191 C238.803959,191 243.745052,201.564061 238.803959,211.690699 C233.862866,221.817337 230.800355,225.933905 232.449399,232.399374 C234.098444,238.864842 238.803959,191 238.803959,191 Z" id="Path" fill="#000000" opacity="0.1"></path>
                    <path d="M4.51934693,385.822437 C11.8850655,390.812178 23.0555923,388.433206 23.0555923,388.433206 C23.0555923,388.433206 39.9211367,380.356902 44.9149475,380.356902 C49.9087583,380.356902 62,375.36106 62,375.36106 L61.5914709,372 C56.6708294,372.945489 45.4759128,375.208562 44.1832536,376.312649 C42.51865,377.740032 22.0860979,384.632951 22.0860979,384.632951 C22.0860979,384.632951 8.17171896,382.894472 4.29983876,377.172739 C1.75720247,379.820108 0.665759069,383.211668 4.51934693,385.822437 Z" id="Path" fill="#000000" opacity="0.1"></path>
                    <g id="Group" opacity="0.1" transform="translate(158.000000, 79.000000)" fill="#000000">
                        <path d="M52.3157609,1.088 C52.3157609,0.828363636 52.3157609,0.568727273 52.3157609,0.302909091 C52.3157609,0.605818182 52.3157609,0.921090909 52.3157609,1.20545455 C52.3277174,1.16836364 52.3157609,1.13127273 52.3157609,1.088 Z" id="Path"></path>
                        <path d="M4.68097826,21.5807273 C6.01413043,22.1989091 7.6701087,22.4461818 8.51304348,23.6701818 C9.35597826,24.8941818 8.87173913,26.4458182 9.075,27.8614545 C9.42771739,30.3836364 12.7157609,32.2938182 14.7961957,30.7792727 C15.5099056,30.1750814 16.0770118,29.4066013 16.4521739,28.5352727 C18.4070652,24.7705455 21.1331522,20.4432727 25.4195652,20.3690909 C27.248913,20.3381818 28.9646739,21.1356364 30.7342391,21.6054545 C32.5038043,22.0752727 34.5961957,22.1247273 35.9173913,20.8821818 C36.9277174,19.9301818 37.4059783,18.292 38.7630435,17.9581818 C40.1201087,17.6243636 41.3695652,18.9101818 41.9972826,20.1712727 C42.625,21.4323636 43.1152174,22.916 44.388587,23.5712727 C44.9505435,23.8556364 45.5842391,23.9421818 46.1521739,24.2512727 C48.7706522,25.7287273 47.4554348,31.0512727 50.4086957,31.5952727 C50.8072464,27.6389091 51.1918478,23.6866667 51.5625,19.7385455 C51.5870049,18.6239308 51.8655706,17.5310323 52.3755435,16.5487273 C52.7701087,15.9305455 53.35,15.4112727 53.786413,14.8054545 C54.3146278,14.0572876 54.6443838,13.1792537 54.7429348,12.2585455 C54.9905149,13.8220499 54.648114,15.4241695 53.786413,16.7341818 C53.35,17.3523636 52.7701087,17.8407273 52.3755435,18.4712727 C51.8577006,19.4621147 51.5749354,20.5660047 51.5505435,21.692 C51.1519928,25.6442424 50.7673913,29.5964848 50.3967391,33.5487273 C47.4434783,32.9738182 48.7586957,27.676 46.1402174,26.2047273 C45.5961957,25.8956364 44.9445652,25.8090909 44.3766304,25.5185455 C43.1152174,24.9003636 42.625,23.3858182 41.9853261,22.1247273 C41.3456522,20.8636364 40.1320652,19.5716364 38.751087,19.9116364 C37.3701087,20.2516364 36.9157609,21.8836364 35.9054348,22.8356364 C34.5842391,24.072 32.4858696,24.0225455 30.7222826,23.5589091 C28.9586957,23.0952727 27.2369565,22.3225455 25.4076087,22.3225455 C21.1211957,22.3967273 18.3951087,26.724 16.4402174,30.4887273 C16.0650553,31.3600559 15.4979491,32.1285359 14.7842391,32.7327273 C12.7038043,34.2410909 9.40380435,32.3370909 9.06304348,29.8149091 C8.85978261,28.3992727 9.29021739,26.8229091 8.50108696,25.6236364 C7.71195652,24.4243636 6.00217391,24.1709091 4.66902174,23.528 C1.55434783,22.0443636 0.406521739,18.2425455 0.669565217,14.7869091 C0.908695652,17.612 2.14021739,20.3690909 4.68097826,21.5807273 Z" id="Path"></path>
                        <path d="M0.322826087,1.35381818 C0.591847826,2.23781818 1.08804348,3.04763636 1.38097826,3.92545455 C1.68952511,4.95041376 1.77927185,6.03240752 1.64402174,7.09672727 C1.5974873,6.67638398 1.50934409,6.26209103 1.38097826,5.86036364 C1.08804348,4.97636364 0.591847826,4.17272727 0.322826087,3.28872727 C0.0867373719,2.47282981 0.039634569,1.61093416 0.185326087,0.772727273 C0.220056527,0.969054393 0.265969793,1.16308917 0.322826087,1.35381818 Z" id="Path"></path>
                    </g>
                    <path d="M291.012516,272.985129 L242.62209,266.899575 C241.926366,266.812892 241.3392,266.338325 241.105677,265.673959 C240.872153,265.009593 241.032415,264.269633 241.519569,263.762941 L261.816798,242.569468 C262.216006,242.151678 262.786639,241.945567 263.359123,242.012383 L300.356833,246.178414 C300.926972,246.242769 301.435119,246.569401 301.732376,247.062602 C302.029633,247.555803 302.082342,248.159725 301.875058,248.69741 L292.970545,271.822516 C292.658301,272.613727 291.852685,273.092076 291.012516,272.985129 Z" id="Path" fill="#746D83"></path>
                    <path d="M291.012516,272.985129 L242.62209,266.899575 C241.926366,266.812892 241.3392,266.338325 241.105677,265.673959 C240.872153,265.009593 241.032415,264.269633 241.519569,263.762941 L261.816798,242.569468 C262.216006,242.151678 262.786639,241.945567 263.359123,242.012383 L300.356833,246.178414 C300.926972,246.242769 301.435119,246.569401 301.732376,247.062602 C302.029633,247.555803 302.082342,248.159725 301.875058,248.69741 L292.970545,271.822516 C292.658301,272.613727 291.852685,273.092076 291.012516,272.985129 Z" id="Path" fill="#000000" opacity="0.1"></path>
                    <path d="M290.006578,272.987049 L241.620661,266.883705 C240.925006,266.794519 240.338857,266.319211 240.105649,265.655182 C239.872441,264.991153 240.032018,264.251854 240.518105,263.744324 L260.81597,242.573159 C261.216118,242.156784 261.785308,241.949183 262.358343,242.010611 L299.351187,246.172257 C299.922847,246.236637 300.432445,246.563551 300.730831,247.057317 C301.029216,247.551083 301.082647,248.155864 300.875485,248.69465 L291.964668,271.795415 C291.661194,272.59629 290.854175,273.087417 290.006578,272.987049 Z" id="Path" fill="#746D83"></path>
                    <path d="M260.523495,251.776283 L275.145732,253 L296,251.587048 L295.642325,251.587048 L276.321815,249.644239 C271.896346,247.953743 274.963863,238 274.963863,238 L260.16582,238.78217 L258.983674,238.845248 C253.75192,251.587048 260.523495,251.776283 260.523495,251.776283 Z" id="Path" fill="#D1D9EC"></path>
                    <path d="M260.523495,251.794496 L275.145732,253 L296,251.608078 L295.642325,251.608078 L274.55769,252.378606 L260.43256,250.80648 C256.419326,249.725255 258.716933,242.591656 260.16582,239 L258.983674,239.062139 C253.75192,251.608078 260.523495,251.794496 260.523495,251.794496 Z" id="Path" fill="#000000" opacity="0.1"></path>
                    <path d="M235.028215,163.6383 L239.481428,227.276173 L240.084844,235.626953 C240.209842,237.541068 241.816482,239.022959 243.741548,238.999731 L245.0932,238.999731 L312.132763,238.596921 C312.661416,238.590935 313.16335,238.364457 313.516579,237.972527 C313.869809,237.580598 314.041993,237.059102 313.991286,236.534778 L313.387869,228.177986 L308.669153,172.217539 C308.518789,170.727509 307.513107,169.460341 306.092565,168.971016 L242.196802,159.423832 C240.024503,158.672322 237.809964,158.936853 236.428141,160.085161 C235.393959,160.961387 234.868476,162.29511 235.028215,163.6383 Z" id="Path" fill="#4C4C56"></path>
                    <path d="M240,228 L240.599217,236.547496 C240.723345,238.5067 242.318804,240.0235 244.230474,239.999724 L245.57272,239.999724 L312.145757,239.587426 C312.670731,239.581299 313.169172,239.349486 313.519943,238.948324 C313.870715,238.547162 314.0417,238.013381 313.991346,237.476705 L313.392129,228.923056 L240,228 Z" id="Path" fill="#DFE6F5"></path>
                    <ellipse id="Oval" fill="#FFFFFF" cx="285" cy="235.5" rx="1" ry="1.5"></ellipse>
                    <path d="M282,258.046136 C282,258.046136 263.950992,252.382492 259.085246,256.500608 C259.085246,256.500608 258.289141,257.754807 261.562677,258.046136 L274.787526,258.930001 C274.787526,258.930001 280.229557,259.369464 282,258.046136 Z" id="Path" fill="#D1D9EC"></path>
                    <path d="M282.281037,256.952741 C278.677136,255.498901 267.907477,251.739175 261,255.898111 C261,255.898111 268.640271,255.057982 272.838816,257.46516 C277.037361,259.872338 282.767564,258.728332 282.767564,258.728332 L282.851655,258.579373 C283.014153,258.292173 283.044717,257.949641 282.935601,257.638591 C282.826486,257.327541 282.588164,257.077829 282.281037,256.952741 Z" id="Path" fill="#DFE6F5"></path>
                    <path d="M236.026746,164.544937 L241.02536,236.623313 C241.149516,238.539493 242.74534,240.022984 244.657447,239.99973 L246,240 C245.080194,239.118279 244.296412,238.104033 243.674506,236.990446 C243.674506,236.990446 238.765795,164.562993 238.406183,162.769459 C238.24862,162.09806 237.905884,161.484816 237.417248,161 C236.393805,161.874684 235.872248,163.204339 236.026746,164.544937 Z" id="Path" fill="#DFE6F5"></path>
                    <path d="M236.026746,164.544937 L241.02536,236.623313 C241.149516,238.539493 242.74534,240.022984 244.657447,239.99973 L246,240 C245.080194,239.118279 244.296412,238.104033 243.674506,236.990446 C243.674506,236.990446 238.765795,164.562993 238.406183,162.769459 C238.24862,162.09806 237.905884,161.484816 237.417248,161 C236.393805,161.874684 235.872248,163.204339 236.026746,164.544937 Z" id="Path" fill="#000000" opacity="0.1"></path>
                    <path d="M227.398882,185.433002 C232.890886,184.22884 245.705563,180.520019 245.705563,180.520019 L248,180.062438 C247.969489,172.187215 247.572844,164.558845 247.426391,162 L247.371471,162 C247.371471,162 236.430178,165.522175 233.818424,167.418731 C231.206671,169.315287 223.115118,168.821581 223.115118,168.821581 C223.115118,168.821581 210.520122,169.489891 200.067007,181.007705 C189.613892,192.525519 221.931286,186.619102 227.398882,185.433002 Z" id="Path" fill="#000000" opacity="0.1"></path>
                    <path d="M279.180502,164.49582 C280.153776,164.942857 280.830426,165.86063 280.972419,166.926287 C281.114412,167.991943 280.701859,169.056207 279.879887,169.744691 C277.040502,172.104881 272.897989,174.9275 268.940784,175.323867 C262.365366,175.990486 246.464811,179.191456 244.886711,179.527768 C244.801774,179.542086 244.717896,179.56215 244.63565,179.587824 C243.326544,179.972181 231.873362,183.341307 226.822246,184.452338 C221.442359,185.653452 189.760802,191.484863 200.036386,180.020225 C209.469121,169.462429 220.677219,168.00908 222.404761,167.870952 C222.54199,167.859016 222.679989,167.859016 222.817219,167.870952 C224.012749,167.925002 230.779452,168.159219 233.116714,166.459642 C234.334171,165.692279 235.623533,165.046598 236.966322,164.531854 C242.031262,162.426262 247.314356,160.895368 252.717435,159.967618 L263.674472,158.045835 C264.298255,157.937901 264.93994,158.021626 265.515589,158.286058 L279.180502,164.49582 Z" id="Path" fill="#EFB7B9"></path>
                    <path d="M256.64036,132.465842 L261.796104,132 C261.796104,132 267.427115,136.180637 271.644358,136.180637 C275.8616,136.180637 278.44248,141.555742 278.44248,141.555742 C278.44248,141.555742 285.475228,144.816639 287.821483,145.282481 C290.167737,145.748324 294.150354,148.071563 292.977227,149.003248 C291.804099,149.934933 293.211852,152.031224 295.323481,153.6557 C297.435111,155.280176 300.737915,163.665339 297.898345,164.829946 C295.058776,165.994552 287.352232,168.317791 285.264667,169.482397 C283.177102,170.647003 280.578173,169.482397 280.578173,169.482397 C280.578173,169.482397 268.137008,153.410834 261.80212,156.43881 C255.467233,159.466785 246.798122,159.460813 246.798122,159.460813 L240,145.270536 L256.64036,132.465842 Z" id="Path" fill="#67647E"></path>
                    <path d="M565.834177,428.430788 C565.267166,429.211625 564.815391,430.070923 564.492892,430.981974 C564.404261,431.202007 564.327447,431.45772 564.244725,431.70154 C564.094425,431.632007 563.938194,431.576277 563.777934,431.535029 C563.089204,431.359945 562.376615,431.299678 561.668512,431.356624 C561.668512,431.077123 561.668512,430.791676 561.709873,430.482441 C561.792596,427.348467 561.426253,422.9835 558.460063,424.832961 C555.60614,426.617008 557.638748,429.590418 559.476368,431.493401 L559.949067,431.9632 C558.276892,433.152564 557.95782,435.96541 557.6742,438.885299 C557.390581,441.805188 554.932543,444.998631 553.301729,446.812411 C553.136284,447.00271 552.982657,447.163274 552.840847,447.317891 C551.509972,446.25138 549.791675,445.803905 548.113851,446.086899 L547.895228,445.284078 C546.571669,440.4731 543.824102,432.141604 540.320217,430.31593 C540.467935,430.131579 540.621563,429.941281 540.781099,429.721248 C542.270103,427.764744 543.942277,424.850802 541.466513,424.107449 C538.990749,423.364097 538.772126,426.634848 538.908027,429.078992 C538.908027,429.388226 538.931662,429.67962 538.978932,429.953174 C537.976818,429.998858 537.038046,430.459432 536.384993,431.225794 L536.006833,430.767889 C533.99786,428.38916 530.310803,424.601035 529.199959,427.461456 C528.16002,430.125632 531.403921,433.586682 533.684696,435.59076 L533.826506,435.715644 C532.290232,441.965752 538.978932,447.062178 542.577357,449.292236 L543.038239,449.577683 C538.074894,455.465036 535.014164,466.502335 535.014164,466.502335 L548.911532,469 C548.911532,469 558.123265,460.995579 556.947425,453.478798 L557.041965,453.478798 C566.247789,451.623389 568.345394,441.739773 566.909569,435.876208 L567.075013,435.804846 C568.750636,435.112328 570.218683,433.993439 571.335218,432.557882 C573.881888,428.960055 568.475386,424.89243 565.834177,428.430788 Z" id="Path" fill="#81C784"></path>
                    <path d="M565.834177,428.430788 C565.267166,429.211625 564.815391,430.070923 564.492892,430.981974 C564.404261,431.202007 564.327447,431.45772 564.244725,431.70154 C564.094425,431.632007 563.938194,431.576277 563.777934,431.535029 C563.089204,431.359945 562.376615,431.299678 561.668512,431.356624 C561.668512,431.077123 561.668512,430.791676 561.709873,430.482441 C561.792596,427.348467 561.426253,422.9835 558.460063,424.832961 C555.60614,426.617008 557.638748,429.590418 559.476368,431.493401 L559.949067,431.9632 C558.276892,433.152564 557.95782,435.96541 557.6742,438.885299 C557.390581,441.805188 554.932543,444.998631 553.301729,446.812411 C553.136284,447.00271 552.982657,447.163274 552.840847,447.317891 C551.509972,446.25138 549.791675,445.803905 548.113851,446.086899 L547.895228,445.284078 C546.571669,440.4731 543.824102,432.141604 540.320217,430.31593 C540.467935,430.131579 540.621563,429.941281 540.781099,429.721248 C542.270103,427.764744 543.942277,424.850802 541.466513,424.107449 C538.990749,423.364097 538.772126,426.634848 538.908027,429.078992 C538.908027,429.388226 538.931662,429.67962 538.978932,429.953174 C537.976818,429.998858 537.038046,430.459432 536.384993,431.225794 L536.006833,430.767889 C533.99786,428.38916 530.310803,424.601035 529.199959,427.461456 C528.16002,430.125632 531.403921,433.586682 533.684696,435.59076 L533.826506,435.715644 C532.290232,441.965752 538.978932,447.062178 542.577357,449.292236 L543.038239,449.577683 C538.074894,455.465036 535.014164,466.502335 535.014164,466.502335 L548.911532,469 C548.911532,469 558.123265,460.995579 556.947425,453.478798 L557.041965,453.478798 C566.247789,451.623389 568.345394,441.739773 566.909569,435.876208 L567.075013,435.804846 C568.750636,435.112328 570.218683,433.993439 571.335218,432.557882 C573.881888,428.960055 568.475386,424.89243 565.834177,428.430788 Z" id="Path" fill="#000000" opacity="0.1"></path>
                    <path d="M538,432.128271 L536.442854,437 C536.442854,437 535.582177,436.346402 534.489344,435.317589 C532.303677,433.27812 529.195047,429.75595 530.191621,427.044727 C531.256142,424.133793 534.789448,427.97671 536.714647,430.409549 C537.490389,431.377843 538,432.128271 538,432.128271 Z" id="Path" fill="#81C784"></path>
                    <path d="M542.496751,430.008751 C542.108078,430.702879 541.691638,431.367624 541.249302,432 C541.138137,431.121265 541.062561,430.234939 541.022913,429.345002 C540.916649,426.771407 541.115317,423.339947 543.023452,424.110147 C544.931587,424.880347 543.651797,427.948623 542.496751,430.008751 Z" id="Path" fill="#81C784"></path>
                    <path d="M562.991073,430.140324 C562.945619,431.729033 562.814305,433 562.814305,433 C562.203159,432.432717 561.62444,431.817861 561.081971,431.159495 C559.511255,429.229064 557.773872,426.237495 560.21328,424.444951 C562.763799,422.580466 563.061781,426.980891 562.991073,430.140324 Z" id="Path" fill="#81C784"></path>
                    <path d="M572.342557,433.330574 C571.264489,434.727729 569.84702,435.816686 568.229128,436.490679 C567.78055,436.691316 567.319315,436.861466 566.848476,437 L565,434.366579 C565.194084,433.496372 565.449573,432.641442 565.764493,431.808399 C566.075881,430.921718 566.512091,430.085408 567.059567,429.325459 C569.615484,425.881755 574.835717,429.840568 572.342557,433.330574 Z" id="Path" fill="#81C784"></path>
                    <path d="M536.901613,432 C537.564516,432.881543 538,433.564738 538,433.564738 L536.669355,438 C536.669355,438 535.933871,437.404959 535,436.46832 C535.205665,435.048344 535.719611,433.709369 536.495161,432.573003 C536.630645,432.363636 536.770968,432.176309 536.901613,432 Z" id="Path" fill="#000000" opacity="0.1"></path>
                    <path d="M541,429.75 C540.47257,430.534325 539.90746,431.285451 539.30721,432 C539.156359,431.007078 539.053802,430.005579 539,429 C539.719337,429.010668 540.418062,429.27269 541,429.75 Z" id="Path" fill="#000000" opacity="0.1"></path>
                    <path d="M549,449.179085 L544.741003,451 C543.964369,450.620722 543.207909,450.203402 542.474519,449.749638 C537.99759,447.066824 528.993921,440.31123 535.002594,432.347762 C541.011267,424.384294 546.067269,438.666336 548.078463,445.65258 C548.68867,447.746632 549,449.179085 549,449.179085 Z" id="Path" fill="#81C784"></path>
                    <path d="M560,432.069182 C560.793903,431.425545 561.865568,431.04361 563,431 C562.928571,432.666667 562.722222,434 562.722222,434 C561.761855,433.40488 560.852445,432.759854 560,432.069182 Z" id="Path" fill="#000000" opacity="0.1"></path>
                    <path d="M568,436.509476 C567.583252,436.702709 567.154744,436.866578 566.717314,437 L565,434.463768 C565.180313,433.625677 565.417673,432.802299 565.710247,432 C566.818021,432.691193 567.634276,434.38573 568,436.509476 Z" id="Path" fill="#000000" opacity="0.1"></path>
                    <path d="M558.388063,454.521909 C558.156285,454.568143 557.924506,454.608598 557.686628,454.643274 C543.700606,456.654454 553.075449,449.505517 553.075449,449.505517 C553.075449,449.505517 553.685393,448.956487 554.557614,448.054924 C556.24106,446.321148 558.784527,443.20613 559.071201,440.351178 C559.510361,436.057192 560.022714,432.029052 565.371925,433.20802 C570.623545,434.375429 571.623853,452.013713 558.388063,454.521909 Z" id="Path" fill="#81C784"></path>
                    <rect id="Rectangle" fill="#D4DFEC" x="532" y="489" width="26" height="7"></rect>
                    <rect id="Rectangle" fill="#D4DFEC" x="527" y="465" width="35" height="24"></rect>
                    <rect id="Rectangle" fill="#000000" opacity="0.1" x="532" y="489" width="26" height="7"></rect>
                    <rect id="Rectangle" fill="#000000" opacity="0.1" x="527" y="465" width="35" height="24"></rect>
                    <rect id="Rectangle" fill="#D4DFEC" x="533" y="489" width="26" height="7"></rect>
                    <path d="M549.152672,445 C549.725191,446.954545 550,448.295455 550,448.295455 L546.083969,450 C545.369877,449.64496 544.674332,449.25431 544,448.829545 C545.545802,446.892045 547.274809,445.4375 549.152672,445 Z" id="Path" fill="#000000" opacity="0.1"></path>
                    <path d="M559,453.518128 C558.778944,453.564728 558.557888,453.605503 558.331015,453.640452 C544.99204,455.667538 553.933167,448.462065 553.933167,448.462065 C553.933167,448.462065 554.514893,447.908693 555.346761,447 C557.836548,449.009611 558.866203,451.246395 559,453.518128 Z" id="Path" fill="#000000" opacity="0.1"></path>
                    <path d="M536,466.505235 C536,466.505235 543.917108,439.181622 555.015856,447.616302 C566.114605,456.050983 550.502365,469 550.502365,469 L536,466.505235 Z" id="Path" fill="#81C784"></path>
                    <circle id="Oval" fill="#000000" opacity="0.1" cx="540" cy="437" r="1"></circle>
                    <circle id="Oval" fill="#000000" opacity="0.1" cx="540" cy="441" r="1"></circle>
                    <circle id="Oval" fill="#000000" opacity="0.1" cx="565" cy="438" r="1"></circle>
                    <circle id="Oval" fill="#000000" opacity="0.1" cx="545" cy="458" r="1"></circle>
                    <circle id="Oval" fill="#000000" opacity="0.1" cx="563" cy="445" r="1"></circle>
                    <circle id="Oval" fill="#000000" opacity="0.1" cx="554" cy="454" r="1"></circle>
                    <circle id="Oval" fill="#000000" opacity="0.1" cx="543" cy="438" r="1"></circle>
                    <circle id="Oval" fill="#000000" opacity="0.1" cx="562" cy="440" r="1"></circle>
                    <circle id="Oval" fill="#000000" opacity="0.1" cx="559" cy="446" r="1"></circle>
                    <circle id="Oval" fill="#000000" opacity="0.1" cx="550" cy="457" r="1"></circle>
                    <circle id="Oval" fill="#000000" opacity="0.1" cx="548" cy="454" r="1"></circle>
                    <circle id="Oval" fill="#000000" opacity="0.1" cx="544" cy="444" r="1"></circle>
                    <rect id="Rectangle" fill="#000000" opacity="0.1" x="533" y="488" width="26" height="3"></rect>
                    <rect id="Rectangle" fill="#D4DFEC" x="529" y="465" width="35" height="24"></rect>
                    <circle id="Oval" fill="#000000" opacity="0.1" cx="551" cy="462" r="1"></circle>
                    <circle id="Oval" fill="#000000" opacity="0.1" cx="546" cy="463" r="1"></circle>
                </g>
            </g>
        </g>
    </g>
</svg>